G75*
%MOIN*%
%OFA0B0*%
%FSLAX25Y25*%
%IPPOS*%
%LPD*%
%AMOC8*
5,1,8,0,0,1.08239X$1,22.5*
%
%ADD10C,0.07600*%
%ADD11R,0.07600X0.07600*%
%ADD12C,0.07400*%
%ADD13C,0.03100*%
%ADD14C,0.02400*%
%ADD15C,0.01000*%
D10*
X0066500Y0031657D03*
D11*
X0066500Y0051343D03*
D12*
X0061500Y0006500D03*
X0051500Y0006500D03*
X0041500Y0006500D03*
X0031500Y0006500D03*
X0021500Y0006500D03*
D13*
X0026500Y0071500D03*
X0031500Y0071500D03*
X0036500Y0071500D03*
X0036500Y0076500D03*
X0026500Y0181500D03*
X0026500Y0186500D03*
X0026500Y0211500D03*
X0026500Y0216500D03*
X0026500Y0246500D03*
X0026500Y0251500D03*
X0036500Y0246500D03*
X0011500Y0221500D03*
X0011500Y0216500D03*
X0011500Y0211500D03*
X0011500Y0206500D03*
X0011500Y0201500D03*
X0075000Y0246500D03*
D14*
X0036500Y0246500D01*
D15*
X0006000Y0276961D02*
X0006000Y0006000D01*
X0016100Y0006000D01*
X0016100Y0007574D01*
X0016922Y0009559D01*
X0018441Y0011078D01*
X0020426Y0011900D01*
X0022574Y0011900D01*
X0024559Y0011078D01*
X0026078Y0009559D01*
X0026500Y0008540D01*
X0026922Y0009559D01*
X0028441Y0011078D01*
X0030426Y0011900D01*
X0032574Y0011900D01*
X0034559Y0011078D01*
X0036078Y0009559D01*
X0036500Y0008540D01*
X0036922Y0009559D01*
X0038441Y0011078D01*
X0040426Y0011900D01*
X0042574Y0011900D01*
X0044559Y0011078D01*
X0046078Y0009559D01*
X0046500Y0008540D01*
X0046922Y0009559D01*
X0048441Y0011078D01*
X0050426Y0011900D01*
X0052574Y0011900D01*
X0054559Y0011078D01*
X0056078Y0009559D01*
X0056609Y0008276D01*
X0056681Y0008496D01*
X0057053Y0009225D01*
X0057534Y0009888D01*
X0058112Y0010466D01*
X0058775Y0010947D01*
X0059504Y0011319D01*
X0060282Y0011572D01*
X0061000Y0011686D01*
X0061000Y0007000D01*
X0062000Y0007000D01*
X0062000Y0011686D01*
X0062718Y0011572D01*
X0063496Y0011319D01*
X0064225Y0010947D01*
X0064888Y0010466D01*
X0065466Y0009888D01*
X0065947Y0009225D01*
X0066319Y0008496D01*
X0066572Y0007718D01*
X0066686Y0007000D01*
X0062000Y0007000D01*
X0062000Y0006000D01*
X0066686Y0006000D01*
X0066686Y0006000D01*
X0075701Y0006000D01*
X0075701Y0243273D01*
X0075646Y0243250D01*
X0074354Y0243250D01*
X0073509Y0243600D01*
X0037991Y0243600D01*
X0037146Y0243250D01*
X0035854Y0243250D01*
X0034659Y0243745D01*
X0033745Y0244659D01*
X0033250Y0245854D01*
X0033250Y0247146D01*
X0033745Y0248341D01*
X0034659Y0249255D01*
X0035854Y0249750D01*
X0037146Y0249750D01*
X0037991Y0249400D01*
X0073509Y0249400D01*
X0074354Y0249750D01*
X0075646Y0249750D01*
X0075701Y0249727D01*
X0075701Y0276961D01*
X0006000Y0276961D01*
X0006000Y0276091D02*
X0075701Y0276091D01*
X0075701Y0275092D02*
X0006000Y0275092D01*
X0006000Y0274094D02*
X0075701Y0274094D01*
X0075701Y0273095D02*
X0006000Y0273095D01*
X0006000Y0272097D02*
X0075701Y0272097D01*
X0075701Y0271098D02*
X0006000Y0271098D01*
X0006000Y0270100D02*
X0075701Y0270100D01*
X0075701Y0269101D02*
X0006000Y0269101D01*
X0006000Y0268103D02*
X0075701Y0268103D01*
X0075701Y0267104D02*
X0006000Y0267104D01*
X0006000Y0266105D02*
X0075701Y0266105D01*
X0075701Y0265107D02*
X0006000Y0265107D01*
X0006000Y0264108D02*
X0075701Y0264108D01*
X0075701Y0263110D02*
X0006000Y0263110D01*
X0006000Y0262111D02*
X0075701Y0262111D01*
X0075701Y0261113D02*
X0006000Y0261113D01*
X0006000Y0260114D02*
X0075701Y0260114D01*
X0075701Y0259116D02*
X0006000Y0259116D01*
X0006000Y0258117D02*
X0075701Y0258117D01*
X0075701Y0257119D02*
X0006000Y0257119D01*
X0006000Y0256120D02*
X0075701Y0256120D01*
X0075701Y0255122D02*
X0006000Y0255122D01*
X0006000Y0254123D02*
X0075701Y0254123D01*
X0075701Y0253125D02*
X0006000Y0253125D01*
X0006000Y0252126D02*
X0075701Y0252126D01*
X0075701Y0251128D02*
X0006000Y0251128D01*
X0006000Y0250129D02*
X0075701Y0250129D01*
X0075701Y0243140D02*
X0006000Y0243140D01*
X0006000Y0244138D02*
X0034266Y0244138D01*
X0033547Y0245137D02*
X0006000Y0245137D01*
X0006000Y0246135D02*
X0033250Y0246135D01*
X0033250Y0247134D02*
X0006000Y0247134D01*
X0006000Y0248132D02*
X0033658Y0248132D01*
X0034535Y0249131D02*
X0006000Y0249131D01*
X0006000Y0242141D02*
X0075701Y0242141D01*
X0075701Y0241143D02*
X0006000Y0241143D01*
X0006000Y0240144D02*
X0075701Y0240144D01*
X0075701Y0239146D02*
X0006000Y0239146D01*
X0006000Y0238147D02*
X0075701Y0238147D01*
X0075701Y0237149D02*
X0006000Y0237149D01*
X0006000Y0236150D02*
X0075701Y0236150D01*
X0075701Y0235152D02*
X0006000Y0235152D01*
X0006000Y0234153D02*
X0075701Y0234153D01*
X0075701Y0233155D02*
X0006000Y0233155D01*
X0006000Y0232156D02*
X0075701Y0232156D01*
X0075701Y0231158D02*
X0006000Y0231158D01*
X0006000Y0230159D02*
X0075701Y0230159D01*
X0075701Y0229161D02*
X0006000Y0229161D01*
X0006000Y0228162D02*
X0075701Y0228162D01*
X0075701Y0227164D02*
X0006000Y0227164D01*
X0006000Y0226165D02*
X0075701Y0226165D01*
X0075701Y0225167D02*
X0006000Y0225167D01*
X0006000Y0224168D02*
X0075701Y0224168D01*
X0075701Y0223170D02*
X0006000Y0223170D01*
X0006000Y0222171D02*
X0075701Y0222171D01*
X0075701Y0221172D02*
X0006000Y0221172D01*
X0006000Y0220174D02*
X0075701Y0220174D01*
X0075701Y0219175D02*
X0006000Y0219175D01*
X0006000Y0218177D02*
X0075701Y0218177D01*
X0075701Y0217178D02*
X0006000Y0217178D01*
X0006000Y0216180D02*
X0075701Y0216180D01*
X0075701Y0215181D02*
X0006000Y0215181D01*
X0006000Y0214183D02*
X0075701Y0214183D01*
X0075701Y0213184D02*
X0006000Y0213184D01*
X0006000Y0212186D02*
X0075701Y0212186D01*
X0075701Y0211187D02*
X0006000Y0211187D01*
X0006000Y0210189D02*
X0075701Y0210189D01*
X0075701Y0209190D02*
X0006000Y0209190D01*
X0006000Y0208192D02*
X0075701Y0208192D01*
X0075701Y0207193D02*
X0006000Y0207193D01*
X0006000Y0206195D02*
X0075701Y0206195D01*
X0075701Y0205196D02*
X0006000Y0205196D01*
X0006000Y0204198D02*
X0075701Y0204198D01*
X0075701Y0203199D02*
X0006000Y0203199D01*
X0006000Y0202201D02*
X0075701Y0202201D01*
X0075701Y0201202D02*
X0006000Y0201202D01*
X0006000Y0200204D02*
X0075701Y0200204D01*
X0075701Y0199205D02*
X0006000Y0199205D01*
X0006000Y0198207D02*
X0075701Y0198207D01*
X0075701Y0197208D02*
X0006000Y0197208D01*
X0006000Y0196210D02*
X0075701Y0196210D01*
X0075701Y0195211D02*
X0006000Y0195211D01*
X0006000Y0194213D02*
X0075701Y0194213D01*
X0075701Y0193214D02*
X0006000Y0193214D01*
X0006000Y0192216D02*
X0075701Y0192216D01*
X0075701Y0191217D02*
X0006000Y0191217D01*
X0006000Y0190219D02*
X0075701Y0190219D01*
X0075701Y0189220D02*
X0006000Y0189220D01*
X0006000Y0188222D02*
X0075701Y0188222D01*
X0075701Y0187223D02*
X0006000Y0187223D01*
X0006000Y0186225D02*
X0075701Y0186225D01*
X0075701Y0185226D02*
X0006000Y0185226D01*
X0006000Y0184228D02*
X0075701Y0184228D01*
X0075701Y0183229D02*
X0006000Y0183229D01*
X0006000Y0182231D02*
X0075701Y0182231D01*
X0075701Y0181232D02*
X0006000Y0181232D01*
X0006000Y0180234D02*
X0075701Y0180234D01*
X0075701Y0179235D02*
X0006000Y0179235D01*
X0006000Y0178237D02*
X0075701Y0178237D01*
X0075701Y0177238D02*
X0006000Y0177238D01*
X0006000Y0176239D02*
X0075701Y0176239D01*
X0075701Y0175241D02*
X0006000Y0175241D01*
X0006000Y0174242D02*
X0075701Y0174242D01*
X0075701Y0173244D02*
X0006000Y0173244D01*
X0006000Y0172245D02*
X0075701Y0172245D01*
X0075701Y0171247D02*
X0006000Y0171247D01*
X0006000Y0170248D02*
X0075701Y0170248D01*
X0075701Y0169250D02*
X0006000Y0169250D01*
X0006000Y0168251D02*
X0075701Y0168251D01*
X0075701Y0167253D02*
X0006000Y0167253D01*
X0006000Y0166254D02*
X0075701Y0166254D01*
X0075701Y0165256D02*
X0006000Y0165256D01*
X0006000Y0164257D02*
X0075701Y0164257D01*
X0075701Y0163259D02*
X0006000Y0163259D01*
X0006000Y0162260D02*
X0075701Y0162260D01*
X0075701Y0161262D02*
X0006000Y0161262D01*
X0006000Y0160263D02*
X0075701Y0160263D01*
X0075701Y0159265D02*
X0006000Y0159265D01*
X0006000Y0158266D02*
X0075701Y0158266D01*
X0075701Y0157268D02*
X0006000Y0157268D01*
X0006000Y0156269D02*
X0075701Y0156269D01*
X0075701Y0155271D02*
X0006000Y0155271D01*
X0006000Y0154272D02*
X0075701Y0154272D01*
X0075701Y0153274D02*
X0006000Y0153274D01*
X0006000Y0152275D02*
X0075701Y0152275D01*
X0075701Y0151277D02*
X0006000Y0151277D01*
X0006000Y0150278D02*
X0075701Y0150278D01*
X0075701Y0149280D02*
X0006000Y0149280D01*
X0006000Y0148281D02*
X0075701Y0148281D01*
X0075701Y0147283D02*
X0006000Y0147283D01*
X0006000Y0146284D02*
X0075701Y0146284D01*
X0075701Y0145286D02*
X0006000Y0145286D01*
X0006000Y0144287D02*
X0075701Y0144287D01*
X0075701Y0143289D02*
X0006000Y0143289D01*
X0006000Y0142290D02*
X0075701Y0142290D01*
X0075701Y0141292D02*
X0006000Y0141292D01*
X0006000Y0140293D02*
X0075701Y0140293D01*
X0075701Y0139295D02*
X0006000Y0139295D01*
X0006000Y0138296D02*
X0075701Y0138296D01*
X0075701Y0137298D02*
X0006000Y0137298D01*
X0006000Y0136299D02*
X0075701Y0136299D01*
X0075701Y0135301D02*
X0006000Y0135301D01*
X0006000Y0134302D02*
X0075701Y0134302D01*
X0075701Y0133303D02*
X0006000Y0133303D01*
X0006000Y0132305D02*
X0075701Y0132305D01*
X0075701Y0131306D02*
X0006000Y0131306D01*
X0006000Y0130308D02*
X0075701Y0130308D01*
X0075701Y0129309D02*
X0006000Y0129309D01*
X0006000Y0128311D02*
X0075701Y0128311D01*
X0075701Y0127312D02*
X0006000Y0127312D01*
X0006000Y0126314D02*
X0075701Y0126314D01*
X0075701Y0125315D02*
X0006000Y0125315D01*
X0006000Y0124317D02*
X0075701Y0124317D01*
X0075701Y0123318D02*
X0006000Y0123318D01*
X0006000Y0122320D02*
X0075701Y0122320D01*
X0075701Y0121321D02*
X0006000Y0121321D01*
X0006000Y0120323D02*
X0075701Y0120323D01*
X0075701Y0119324D02*
X0006000Y0119324D01*
X0006000Y0118326D02*
X0075701Y0118326D01*
X0075701Y0117327D02*
X0006000Y0117327D01*
X0006000Y0116329D02*
X0075701Y0116329D01*
X0075701Y0115330D02*
X0006000Y0115330D01*
X0006000Y0114332D02*
X0075701Y0114332D01*
X0075701Y0113333D02*
X0006000Y0113333D01*
X0006000Y0112335D02*
X0075701Y0112335D01*
X0075701Y0111336D02*
X0006000Y0111336D01*
X0006000Y0110338D02*
X0075701Y0110338D01*
X0075701Y0109339D02*
X0006000Y0109339D01*
X0006000Y0108341D02*
X0075701Y0108341D01*
X0075701Y0107342D02*
X0006000Y0107342D01*
X0006000Y0106344D02*
X0075701Y0106344D01*
X0075701Y0105345D02*
X0006000Y0105345D01*
X0006000Y0104347D02*
X0075701Y0104347D01*
X0075701Y0103348D02*
X0006000Y0103348D01*
X0006000Y0102350D02*
X0075701Y0102350D01*
X0075701Y0101351D02*
X0006000Y0101351D01*
X0006000Y0100353D02*
X0075701Y0100353D01*
X0075701Y0099354D02*
X0006000Y0099354D01*
X0006000Y0098356D02*
X0075701Y0098356D01*
X0075701Y0097357D02*
X0006000Y0097357D01*
X0006000Y0096359D02*
X0075701Y0096359D01*
X0075701Y0095360D02*
X0006000Y0095360D01*
X0006000Y0094362D02*
X0075701Y0094362D01*
X0075701Y0093363D02*
X0006000Y0093363D01*
X0006000Y0092365D02*
X0075701Y0092365D01*
X0075701Y0091366D02*
X0006000Y0091366D01*
X0006000Y0090368D02*
X0075701Y0090368D01*
X0075701Y0089369D02*
X0006000Y0089369D01*
X0006000Y0088370D02*
X0075701Y0088370D01*
X0075701Y0087372D02*
X0006000Y0087372D01*
X0006000Y0086373D02*
X0075701Y0086373D01*
X0075701Y0085375D02*
X0006000Y0085375D01*
X0006000Y0084376D02*
X0075701Y0084376D01*
X0075701Y0083378D02*
X0006000Y0083378D01*
X0006000Y0082379D02*
X0075701Y0082379D01*
X0075701Y0081381D02*
X0006000Y0081381D01*
X0006000Y0080382D02*
X0075701Y0080382D01*
X0075701Y0079384D02*
X0006000Y0079384D01*
X0006000Y0078385D02*
X0075701Y0078385D01*
X0075701Y0077387D02*
X0006000Y0077387D01*
X0006000Y0076388D02*
X0075701Y0076388D01*
X0075701Y0075390D02*
X0006000Y0075390D01*
X0006000Y0074391D02*
X0075701Y0074391D01*
X0075701Y0073393D02*
X0006000Y0073393D01*
X0006000Y0072394D02*
X0075701Y0072394D01*
X0075701Y0071396D02*
X0006000Y0071396D01*
X0006000Y0070397D02*
X0075701Y0070397D01*
X0075701Y0069399D02*
X0006000Y0069399D01*
X0006000Y0068400D02*
X0075701Y0068400D01*
X0075701Y0067402D02*
X0006000Y0067402D01*
X0006000Y0066403D02*
X0075701Y0066403D01*
X0075701Y0065405D02*
X0006000Y0065405D01*
X0006000Y0064406D02*
X0075701Y0064406D01*
X0075701Y0063408D02*
X0006000Y0063408D01*
X0006000Y0062409D02*
X0075701Y0062409D01*
X0075701Y0061411D02*
X0006000Y0061411D01*
X0006000Y0060412D02*
X0075701Y0060412D01*
X0075701Y0059414D02*
X0006000Y0059414D01*
X0006000Y0058415D02*
X0075701Y0058415D01*
X0075701Y0057417D02*
X0006000Y0057417D01*
X0006000Y0056418D02*
X0061571Y0056418D01*
X0061996Y0056843D02*
X0061000Y0055847D01*
X0061000Y0046838D01*
X0061996Y0045843D01*
X0071004Y0045843D01*
X0072000Y0046838D01*
X0072000Y0055847D01*
X0071004Y0056843D01*
X0061996Y0056843D01*
X0061000Y0055420D02*
X0006000Y0055420D01*
X0006000Y0054421D02*
X0061000Y0054421D01*
X0061000Y0053423D02*
X0006000Y0053423D01*
X0006000Y0052424D02*
X0061000Y0052424D01*
X0061000Y0051426D02*
X0006000Y0051426D01*
X0006000Y0050427D02*
X0061000Y0050427D01*
X0061000Y0049429D02*
X0006000Y0049429D01*
X0006000Y0048430D02*
X0061000Y0048430D01*
X0061000Y0047432D02*
X0006000Y0047432D01*
X0006000Y0046433D02*
X0061405Y0046433D01*
X0064466Y0036569D02*
X0063722Y0036190D01*
X0063047Y0035700D01*
X0062457Y0035110D01*
X0061967Y0034435D01*
X0061588Y0033692D01*
X0061330Y0032899D01*
X0061200Y0032075D01*
X0061200Y0032043D01*
X0066114Y0032043D01*
X0066114Y0031272D01*
X0061200Y0031272D01*
X0061200Y0031240D01*
X0061330Y0030416D01*
X0061588Y0029623D01*
X0061967Y0028880D01*
X0062457Y0028205D01*
X0063047Y0027615D01*
X0063722Y0027125D01*
X0064466Y0026746D01*
X0065259Y0026488D01*
X0066083Y0026357D01*
X0066114Y0026357D01*
X0066114Y0031272D01*
X0066886Y0031272D01*
X0066886Y0032043D01*
X0071800Y0032043D01*
X0071800Y0032075D01*
X0071669Y0032899D01*
X0071412Y0033692D01*
X0071033Y0034435D01*
X0070543Y0035110D01*
X0069953Y0035700D01*
X0069278Y0036190D01*
X0068534Y0036569D01*
X0067741Y0036827D01*
X0066917Y0036957D01*
X0066886Y0036957D01*
X0066886Y0032043D01*
X0066114Y0032043D01*
X0066114Y0036957D01*
X0066083Y0036957D01*
X0065259Y0036827D01*
X0064466Y0036569D01*
X0064227Y0036448D02*
X0006000Y0036448D01*
X0006000Y0037446D02*
X0075701Y0037446D01*
X0075701Y0036448D02*
X0068773Y0036448D01*
X0070203Y0035449D02*
X0075701Y0035449D01*
X0075701Y0034451D02*
X0071022Y0034451D01*
X0071490Y0033452D02*
X0075701Y0033452D01*
X0075701Y0032454D02*
X0071740Y0032454D01*
X0071800Y0031272D02*
X0066886Y0031272D01*
X0066886Y0026357D01*
X0066917Y0026357D01*
X0067741Y0026488D01*
X0068534Y0026746D01*
X0069278Y0027125D01*
X0069953Y0027615D01*
X0070543Y0028205D01*
X0071033Y0028880D01*
X0071412Y0029623D01*
X0071669Y0030416D01*
X0071800Y0031240D01*
X0071800Y0031272D01*
X0071676Y0030457D02*
X0075701Y0030457D01*
X0075701Y0031455D02*
X0066886Y0031455D01*
X0066114Y0031455D02*
X0006000Y0031455D01*
X0006000Y0030457D02*
X0061324Y0030457D01*
X0061672Y0029458D02*
X0006000Y0029458D01*
X0006000Y0028460D02*
X0062272Y0028460D01*
X0063259Y0027461D02*
X0006000Y0027461D01*
X0006000Y0026463D02*
X0065418Y0026463D01*
X0066114Y0026463D02*
X0066886Y0026463D01*
X0067582Y0026463D02*
X0075701Y0026463D01*
X0075701Y0027461D02*
X0069741Y0027461D01*
X0070728Y0028460D02*
X0075701Y0028460D01*
X0075701Y0029458D02*
X0071328Y0029458D01*
X0066886Y0029458D02*
X0066114Y0029458D01*
X0066114Y0028460D02*
X0066886Y0028460D01*
X0066886Y0027461D02*
X0066114Y0027461D01*
X0066114Y0030457D02*
X0066886Y0030457D01*
X0066886Y0032454D02*
X0066114Y0032454D01*
X0066114Y0033452D02*
X0066886Y0033452D01*
X0066886Y0034451D02*
X0066114Y0034451D01*
X0066114Y0035449D02*
X0066886Y0035449D01*
X0066886Y0036448D02*
X0066114Y0036448D01*
X0062797Y0035449D02*
X0006000Y0035449D01*
X0006000Y0034451D02*
X0061978Y0034451D01*
X0061510Y0033452D02*
X0006000Y0033452D01*
X0006000Y0032454D02*
X0061260Y0032454D01*
X0061000Y0011485D02*
X0062000Y0011485D01*
X0062000Y0010487D02*
X0061000Y0010487D01*
X0061000Y0009488D02*
X0062000Y0009488D01*
X0062000Y0008490D02*
X0061000Y0008490D01*
X0061000Y0007491D02*
X0062000Y0007491D01*
X0062000Y0006493D02*
X0075701Y0006493D01*
X0075701Y0007491D02*
X0066608Y0007491D01*
X0066321Y0008490D02*
X0075701Y0008490D01*
X0075701Y0009488D02*
X0065757Y0009488D01*
X0064860Y0010487D02*
X0075701Y0010487D01*
X0075701Y0011485D02*
X0062985Y0011485D01*
X0060015Y0011485D02*
X0053576Y0011485D01*
X0055150Y0010487D02*
X0058140Y0010487D01*
X0057243Y0009488D02*
X0056107Y0009488D01*
X0056521Y0008490D02*
X0056679Y0008490D01*
X0049424Y0011485D02*
X0043576Y0011485D01*
X0045150Y0010487D02*
X0047850Y0010487D01*
X0046893Y0009488D02*
X0046107Y0009488D01*
X0039424Y0011485D02*
X0033576Y0011485D01*
X0035150Y0010487D02*
X0037850Y0010487D01*
X0036893Y0009488D02*
X0036107Y0009488D01*
X0029424Y0011485D02*
X0023576Y0011485D01*
X0025150Y0010487D02*
X0027850Y0010487D01*
X0026893Y0009488D02*
X0026107Y0009488D01*
X0019424Y0011485D02*
X0006000Y0011485D01*
X0006000Y0010487D02*
X0017850Y0010487D01*
X0016893Y0009488D02*
X0006000Y0009488D01*
X0006000Y0008490D02*
X0016479Y0008490D01*
X0016100Y0007491D02*
X0006000Y0007491D01*
X0006000Y0006493D02*
X0016100Y0006493D01*
X0006000Y0012484D02*
X0075701Y0012484D01*
X0075701Y0013482D02*
X0006000Y0013482D01*
X0006000Y0014481D02*
X0075701Y0014481D01*
X0075701Y0015479D02*
X0006000Y0015479D01*
X0006000Y0016478D02*
X0075701Y0016478D01*
X0075701Y0017476D02*
X0006000Y0017476D01*
X0006000Y0018475D02*
X0075701Y0018475D01*
X0075701Y0019473D02*
X0006000Y0019473D01*
X0006000Y0020472D02*
X0075701Y0020472D01*
X0075701Y0021470D02*
X0006000Y0021470D01*
X0006000Y0022469D02*
X0075701Y0022469D01*
X0075701Y0023467D02*
X0006000Y0023467D01*
X0006000Y0024466D02*
X0075701Y0024466D01*
X0075701Y0025464D02*
X0006000Y0025464D01*
X0006000Y0038445D02*
X0075701Y0038445D01*
X0075701Y0039443D02*
X0006000Y0039443D01*
X0006000Y0040442D02*
X0075701Y0040442D01*
X0075701Y0041440D02*
X0006000Y0041440D01*
X0006000Y0042439D02*
X0075701Y0042439D01*
X0075701Y0043437D02*
X0006000Y0043437D01*
X0006000Y0044436D02*
X0075701Y0044436D01*
X0075701Y0045434D02*
X0006000Y0045434D01*
X0071595Y0046433D02*
X0075701Y0046433D01*
X0075701Y0047432D02*
X0072000Y0047432D01*
X0072000Y0048430D02*
X0075701Y0048430D01*
X0075701Y0049429D02*
X0072000Y0049429D01*
X0072000Y0050427D02*
X0075701Y0050427D01*
X0075701Y0051426D02*
X0072000Y0051426D01*
X0072000Y0052424D02*
X0075701Y0052424D01*
X0075701Y0053423D02*
X0072000Y0053423D01*
X0072000Y0054421D02*
X0075701Y0054421D01*
X0075701Y0055420D02*
X0072000Y0055420D01*
X0071429Y0056418D02*
X0075701Y0056418D01*
M02*
