G75*
%MOIN*%
%OFA0B0*%
%FSLAX25Y25*%
%IPPOS*%
%LPD*%
%AMOC8*
5,1,8,0,0,1.08239X$1,22.5*
%
%ADD10C,0.07600*%
%ADD11R,0.07600X0.07600*%
%ADD12R,0.06500X0.03937*%
%ADD13R,0.03937X0.08661*%
%ADD14R,0.04331X0.08661*%
%ADD15R,0.01575X0.02756*%
%ADD16R,0.02756X0.01575*%
%ADD17C,0.07400*%
%ADD18R,0.04331X0.03937*%
%ADD19C,0.01000*%
%ADD20C,0.02000*%
%ADD21C,0.02400*%
%ADD22C,0.03100*%
D10*
X0066500Y0031657D03*
D11*
X0066500Y0051343D03*
D12*
X0066646Y0085201D03*
X0066646Y0097799D03*
X0066646Y0120201D03*
X0066646Y0132799D03*
X0066646Y0155201D03*
X0066646Y0167799D03*
X0066646Y0190201D03*
X0066646Y0202799D03*
X0066646Y0225201D03*
X0066646Y0237799D03*
X0066646Y0260201D03*
X0066646Y0272799D03*
X0046354Y0272799D03*
X0046354Y0260201D03*
X0046354Y0237799D03*
X0046354Y0225201D03*
X0046354Y0202799D03*
X0046354Y0190201D03*
X0046354Y0167799D03*
X0046354Y0155201D03*
X0046354Y0132799D03*
X0046354Y0120201D03*
X0046354Y0097799D03*
X0046354Y0085201D03*
D13*
X0028390Y0083232D03*
X0028390Y0099768D03*
X0028390Y0118232D03*
X0028390Y0134768D03*
X0028390Y0153232D03*
X0028390Y0169768D03*
X0014610Y0169768D03*
X0014610Y0153232D03*
X0014610Y0134768D03*
X0014610Y0118232D03*
X0014610Y0099768D03*
X0014610Y0083232D03*
D14*
X0021500Y0083232D03*
X0021500Y0099768D03*
X0021500Y0118232D03*
X0021500Y0134768D03*
X0021500Y0153232D03*
X0021500Y0169768D03*
D15*
X0021500Y0193154D03*
X0021500Y0199846D03*
X0018350Y0199846D03*
X0018350Y0193154D03*
X0024650Y0193154D03*
X0024650Y0199846D03*
X0024650Y0228154D03*
X0024650Y0234846D03*
X0021500Y0234846D03*
X0021500Y0228154D03*
X0018350Y0228154D03*
X0018350Y0234846D03*
X0018350Y0263154D03*
X0021500Y0263154D03*
X0021500Y0269846D03*
X0018350Y0269846D03*
X0024650Y0269846D03*
X0024650Y0263154D03*
D16*
X0024846Y0266500D03*
X0018154Y0266500D03*
X0018154Y0231500D03*
X0024846Y0231500D03*
X0024846Y0196500D03*
X0018154Y0196500D03*
D17*
X0021500Y0006500D03*
X0031500Y0006500D03*
X0041500Y0006500D03*
X0051500Y0006500D03*
X0061500Y0006500D03*
D18*
X0059846Y0071500D03*
X0053154Y0071500D03*
D19*
X0006000Y0006000D02*
X0006000Y0276961D01*
X0075701Y0276961D01*
X0075701Y0262642D01*
X0075077Y0262900D01*
X0071569Y0262900D01*
X0070600Y0263869D01*
X0062691Y0263869D01*
X0061696Y0262873D01*
X0061696Y0257528D01*
X0062691Y0256532D01*
X0070600Y0256532D01*
X0071168Y0257100D01*
X0072100Y0257100D01*
X0072100Y0247991D01*
X0071750Y0247146D01*
X0071750Y0245854D01*
X0072100Y0245009D01*
X0072100Y0228101D01*
X0071368Y0228101D01*
X0070600Y0228869D01*
X0062691Y0228869D01*
X0061696Y0227873D01*
X0061696Y0222528D01*
X0062691Y0221532D01*
X0070600Y0221532D01*
X0071368Y0222301D01*
X0072100Y0222301D01*
X0072100Y0193101D01*
X0071368Y0193101D01*
X0070600Y0193869D01*
X0062691Y0193869D01*
X0061696Y0192873D01*
X0061696Y0187528D01*
X0062691Y0186532D01*
X0070600Y0186532D01*
X0071368Y0187301D01*
X0072100Y0187301D01*
X0072100Y0158101D01*
X0071368Y0158101D01*
X0070600Y0158869D01*
X0062691Y0158869D01*
X0061696Y0157873D01*
X0061696Y0152528D01*
X0062691Y0151532D01*
X0070600Y0151532D01*
X0071368Y0152301D01*
X0072100Y0152301D01*
X0072100Y0123101D01*
X0071368Y0123101D01*
X0070600Y0123869D01*
X0062691Y0123869D01*
X0061696Y0122873D01*
X0061696Y0117528D01*
X0062691Y0116532D01*
X0070600Y0116532D01*
X0071368Y0117301D01*
X0072100Y0117301D01*
X0072100Y0088101D01*
X0071368Y0088101D01*
X0070600Y0088869D01*
X0062691Y0088869D01*
X0061696Y0087873D01*
X0061696Y0082528D01*
X0062691Y0081532D01*
X0063946Y0081532D01*
X0063946Y0056843D01*
X0061996Y0056843D01*
X0061000Y0055847D01*
X0061000Y0054243D01*
X0055766Y0054243D01*
X0054700Y0053801D01*
X0049857Y0048958D01*
X0049041Y0048143D01*
X0048600Y0047077D01*
X0048600Y0011144D01*
X0048441Y0011078D01*
X0046922Y0009559D01*
X0046500Y0008540D01*
X0046078Y0009559D01*
X0044559Y0011078D01*
X0043700Y0011434D01*
X0043700Y0055589D01*
X0047411Y0059300D01*
X0057411Y0059300D01*
X0058700Y0060589D01*
X0062046Y0063935D01*
X0062046Y0067831D01*
X0062716Y0067831D01*
X0063712Y0068827D01*
X0063712Y0074173D01*
X0062716Y0075168D01*
X0056977Y0075168D01*
X0056500Y0074692D01*
X0056023Y0075168D01*
X0050284Y0075168D01*
X0049288Y0074173D01*
X0049288Y0073700D01*
X0048554Y0073700D01*
X0048554Y0081532D01*
X0050308Y0081532D01*
X0051304Y0082528D01*
X0051304Y0087873D01*
X0050308Y0088869D01*
X0042400Y0088869D01*
X0041404Y0087873D01*
X0041404Y0082528D01*
X0042400Y0081532D01*
X0044154Y0081532D01*
X0044154Y0070734D01*
X0044300Y0070589D01*
X0045589Y0069300D01*
X0049288Y0069300D01*
X0049288Y0068827D01*
X0050284Y0067831D01*
X0056023Y0067831D01*
X0056500Y0068308D01*
X0056977Y0067831D01*
X0057646Y0067831D01*
X0057646Y0065758D01*
X0055589Y0063700D01*
X0045589Y0063700D01*
X0040589Y0058700D01*
X0039300Y0057411D01*
X0039300Y0011434D01*
X0038441Y0011078D01*
X0036922Y0009559D01*
X0036500Y0008540D01*
X0036078Y0009559D01*
X0034559Y0011078D01*
X0033700Y0011434D01*
X0033700Y0027411D01*
X0032411Y0028700D01*
X0023700Y0037411D01*
X0023700Y0077202D01*
X0024370Y0077202D01*
X0025194Y0078027D01*
X0025221Y0077981D01*
X0025500Y0077701D01*
X0025842Y0077504D01*
X0026224Y0077402D01*
X0027905Y0077402D01*
X0027905Y0082748D01*
X0028874Y0082748D01*
X0028874Y0077402D01*
X0030556Y0077402D01*
X0030937Y0077504D01*
X0031279Y0077701D01*
X0031559Y0077981D01*
X0031756Y0078323D01*
X0031858Y0078704D01*
X0031858Y0082748D01*
X0028874Y0082748D01*
X0028874Y0083717D01*
X0027905Y0083717D01*
X0027905Y0089063D01*
X0026224Y0089063D01*
X0025842Y0088961D01*
X0025500Y0088763D01*
X0025221Y0088484D01*
X0025194Y0088438D01*
X0024370Y0089263D01*
X0018630Y0089263D01*
X0017957Y0088589D01*
X0017283Y0089263D01*
X0011938Y0089263D01*
X0010942Y0088267D01*
X0010942Y0078197D01*
X0011938Y0077202D01*
X0012410Y0077202D01*
X0012410Y0032478D01*
X0019300Y0025589D01*
X0019300Y0011434D01*
X0018441Y0011078D01*
X0016922Y0009559D01*
X0016100Y0007574D01*
X0016100Y0006000D01*
X0006000Y0006000D01*
X0006000Y0006493D02*
X0016100Y0006493D01*
X0016100Y0007491D02*
X0006000Y0007491D01*
X0006000Y0008490D02*
X0016479Y0008490D01*
X0016893Y0009488D02*
X0006000Y0009488D01*
X0006000Y0010487D02*
X0017850Y0010487D01*
X0019300Y0011485D02*
X0006000Y0011485D01*
X0006000Y0012484D02*
X0019300Y0012484D01*
X0019300Y0013482D02*
X0006000Y0013482D01*
X0006000Y0014481D02*
X0019300Y0014481D01*
X0019300Y0015479D02*
X0006000Y0015479D01*
X0006000Y0016478D02*
X0019300Y0016478D01*
X0019300Y0017476D02*
X0006000Y0017476D01*
X0006000Y0018475D02*
X0019300Y0018475D01*
X0019300Y0019473D02*
X0006000Y0019473D01*
X0006000Y0020472D02*
X0019300Y0020472D01*
X0019300Y0021470D02*
X0006000Y0021470D01*
X0006000Y0022469D02*
X0019300Y0022469D01*
X0019300Y0023467D02*
X0006000Y0023467D01*
X0006000Y0024466D02*
X0019300Y0024466D01*
X0019300Y0025464D02*
X0006000Y0025464D01*
X0006000Y0026463D02*
X0018426Y0026463D01*
X0017427Y0027461D02*
X0006000Y0027461D01*
X0006000Y0028460D02*
X0016429Y0028460D01*
X0015430Y0029458D02*
X0006000Y0029458D01*
X0006000Y0030457D02*
X0014432Y0030457D01*
X0013433Y0031455D02*
X0006000Y0031455D01*
X0006000Y0032454D02*
X0012435Y0032454D01*
X0012410Y0033452D02*
X0006000Y0033452D01*
X0006000Y0034451D02*
X0012410Y0034451D01*
X0012410Y0035449D02*
X0006000Y0035449D01*
X0006000Y0036448D02*
X0012410Y0036448D01*
X0012410Y0037446D02*
X0006000Y0037446D01*
X0006000Y0038445D02*
X0012410Y0038445D01*
X0012410Y0039443D02*
X0006000Y0039443D01*
X0006000Y0040442D02*
X0012410Y0040442D01*
X0012410Y0041440D02*
X0006000Y0041440D01*
X0006000Y0042439D02*
X0012410Y0042439D01*
X0012410Y0043437D02*
X0006000Y0043437D01*
X0006000Y0044436D02*
X0012410Y0044436D01*
X0012410Y0045434D02*
X0006000Y0045434D01*
X0006000Y0046433D02*
X0012410Y0046433D01*
X0012410Y0047432D02*
X0006000Y0047432D01*
X0006000Y0048430D02*
X0012410Y0048430D01*
X0012410Y0049429D02*
X0006000Y0049429D01*
X0006000Y0050427D02*
X0012410Y0050427D01*
X0012410Y0051426D02*
X0006000Y0051426D01*
X0006000Y0052424D02*
X0012410Y0052424D01*
X0012410Y0053423D02*
X0006000Y0053423D01*
X0006000Y0054421D02*
X0012410Y0054421D01*
X0012410Y0055420D02*
X0006000Y0055420D01*
X0006000Y0056418D02*
X0012410Y0056418D01*
X0012410Y0057417D02*
X0006000Y0057417D01*
X0006000Y0058415D02*
X0012410Y0058415D01*
X0012410Y0059414D02*
X0006000Y0059414D01*
X0006000Y0060412D02*
X0012410Y0060412D01*
X0012410Y0061411D02*
X0006000Y0061411D01*
X0006000Y0062409D02*
X0012410Y0062409D01*
X0012410Y0063408D02*
X0006000Y0063408D01*
X0006000Y0064406D02*
X0012410Y0064406D01*
X0012410Y0065405D02*
X0006000Y0065405D01*
X0006000Y0066403D02*
X0012410Y0066403D01*
X0012410Y0067402D02*
X0006000Y0067402D01*
X0006000Y0068400D02*
X0012410Y0068400D01*
X0012410Y0069399D02*
X0006000Y0069399D01*
X0006000Y0070397D02*
X0012410Y0070397D01*
X0012410Y0071396D02*
X0006000Y0071396D01*
X0006000Y0072394D02*
X0012410Y0072394D01*
X0012410Y0073393D02*
X0006000Y0073393D01*
X0006000Y0074391D02*
X0012410Y0074391D01*
X0012410Y0075390D02*
X0006000Y0075390D01*
X0006000Y0076388D02*
X0012410Y0076388D01*
X0011752Y0077387D02*
X0006000Y0077387D01*
X0006000Y0078385D02*
X0010942Y0078385D01*
X0010942Y0079384D02*
X0006000Y0079384D01*
X0006000Y0080382D02*
X0010942Y0080382D01*
X0010942Y0081381D02*
X0006000Y0081381D01*
X0006000Y0082379D02*
X0010942Y0082379D01*
X0010942Y0083378D02*
X0006000Y0083378D01*
X0006000Y0084376D02*
X0010942Y0084376D01*
X0010942Y0085375D02*
X0006000Y0085375D01*
X0006000Y0086373D02*
X0010942Y0086373D01*
X0010942Y0087372D02*
X0006000Y0087372D01*
X0006000Y0088370D02*
X0011045Y0088370D01*
X0011938Y0093737D02*
X0010942Y0094733D01*
X0010942Y0104803D01*
X0011938Y0105798D01*
X0012410Y0105798D01*
X0012410Y0112202D01*
X0011938Y0112202D01*
X0010942Y0113197D01*
X0010942Y0123267D01*
X0011938Y0124263D01*
X0017283Y0124263D01*
X0017957Y0123589D01*
X0018630Y0124263D01*
X0024370Y0124263D01*
X0025194Y0123438D01*
X0025221Y0123484D01*
X0025500Y0123763D01*
X0025842Y0123961D01*
X0026224Y0124063D01*
X0027905Y0124063D01*
X0027905Y0118717D01*
X0028874Y0118717D01*
X0028874Y0124063D01*
X0030556Y0124063D01*
X0030937Y0123961D01*
X0031279Y0123763D01*
X0031559Y0123484D01*
X0031756Y0123142D01*
X0031858Y0122760D01*
X0031858Y0118717D01*
X0028874Y0118717D01*
X0028874Y0117748D01*
X0028874Y0112402D01*
X0030556Y0112402D01*
X0030937Y0112504D01*
X0031279Y0112701D01*
X0031559Y0112981D01*
X0031756Y0113323D01*
X0031858Y0113704D01*
X0031858Y0117748D01*
X0028874Y0117748D01*
X0027905Y0117748D01*
X0027905Y0112402D01*
X0026224Y0112402D01*
X0025842Y0112504D01*
X0025500Y0112701D01*
X0025221Y0112981D01*
X0025194Y0113027D01*
X0024370Y0112202D01*
X0023700Y0112202D01*
X0023700Y0105798D01*
X0024370Y0105798D01*
X0025043Y0105125D01*
X0025717Y0105798D01*
X0031062Y0105798D01*
X0032058Y0104803D01*
X0032058Y0102668D01*
X0033566Y0102668D01*
X0033600Y0102701D01*
X0033600Y0131868D01*
X0032058Y0131868D01*
X0032058Y0129733D01*
X0031062Y0128737D01*
X0025717Y0128737D01*
X0025043Y0129411D01*
X0024370Y0128737D01*
X0018630Y0128737D01*
X0017957Y0129411D01*
X0017283Y0128737D01*
X0011938Y0128737D01*
X0010942Y0129733D01*
X0010942Y0139803D01*
X0011938Y0140798D01*
X0012410Y0140798D01*
X0012410Y0147202D01*
X0011938Y0147202D01*
X0010942Y0148197D01*
X0010942Y0158267D01*
X0011938Y0159263D01*
X0017283Y0159263D01*
X0017957Y0158589D01*
X0018630Y0159263D01*
X0024370Y0159263D01*
X0025194Y0158438D01*
X0025221Y0158484D01*
X0025500Y0158763D01*
X0025842Y0158961D01*
X0026224Y0159063D01*
X0027905Y0159063D01*
X0027905Y0153717D01*
X0028874Y0153717D01*
X0028874Y0159063D01*
X0030556Y0159063D01*
X0030937Y0158961D01*
X0031279Y0158763D01*
X0031559Y0158484D01*
X0031756Y0158142D01*
X0031858Y0157760D01*
X0031858Y0153717D01*
X0028874Y0153717D01*
X0028874Y0152748D01*
X0028874Y0147402D01*
X0030556Y0147402D01*
X0030937Y0147504D01*
X0031279Y0147701D01*
X0031559Y0147981D01*
X0031756Y0148323D01*
X0031858Y0148704D01*
X0031858Y0152748D01*
X0028874Y0152748D01*
X0027905Y0152748D01*
X0027905Y0147402D01*
X0026224Y0147402D01*
X0025842Y0147504D01*
X0025500Y0147701D01*
X0025221Y0147981D01*
X0025194Y0148027D01*
X0024370Y0147202D01*
X0023700Y0147202D01*
X0023700Y0140798D01*
X0024370Y0140798D01*
X0025043Y0140125D01*
X0025717Y0140798D01*
X0031062Y0140798D01*
X0032058Y0139803D01*
X0032058Y0137668D01*
X0033566Y0137668D01*
X0033600Y0137701D01*
X0033600Y0166868D01*
X0032058Y0166868D01*
X0032058Y0164733D01*
X0031062Y0163737D01*
X0025717Y0163737D01*
X0025043Y0164411D01*
X0024370Y0163737D01*
X0018630Y0163737D01*
X0017957Y0164411D01*
X0017283Y0163737D01*
X0011938Y0163737D01*
X0010942Y0164733D01*
X0010942Y0174803D01*
X0011938Y0175798D01*
X0012300Y0175798D01*
X0012300Y0182911D01*
X0013589Y0184200D01*
X0016150Y0186762D01*
X0016150Y0190784D01*
X0015863Y0191071D01*
X0015863Y0194507D01*
X0015855Y0194512D01*
X0015575Y0194792D01*
X0015378Y0195134D01*
X0015276Y0195515D01*
X0015276Y0196500D01*
X0018153Y0196500D01*
X0018153Y0196500D01*
X0015276Y0196500D01*
X0015276Y0197485D01*
X0015378Y0197866D01*
X0015575Y0198208D01*
X0015855Y0198488D01*
X0015863Y0198493D01*
X0015863Y0201929D01*
X0016150Y0202216D01*
X0016150Y0225784D01*
X0015863Y0226071D01*
X0015863Y0229507D01*
X0015855Y0229512D01*
X0015575Y0229792D01*
X0015378Y0230134D01*
X0015276Y0230515D01*
X0015276Y0231500D01*
X0018153Y0231500D01*
X0018153Y0231500D01*
X0015276Y0231500D01*
X0015276Y0232485D01*
X0015378Y0232866D01*
X0015575Y0233208D01*
X0015855Y0233488D01*
X0015863Y0233493D01*
X0015863Y0236929D01*
X0016150Y0237216D01*
X0016150Y0260784D01*
X0015863Y0261071D01*
X0015863Y0264507D01*
X0015855Y0264512D01*
X0015575Y0264792D01*
X0015378Y0265134D01*
X0015276Y0265515D01*
X0015276Y0266500D01*
X0018153Y0266500D01*
X0018153Y0266500D01*
X0015276Y0266500D01*
X0015276Y0267485D01*
X0015378Y0267866D01*
X0015575Y0268208D01*
X0015855Y0268488D01*
X0015863Y0268493D01*
X0015863Y0271929D01*
X0016859Y0272924D01*
X0019842Y0272924D01*
X0019925Y0272841D01*
X0020008Y0272924D01*
X0022992Y0272924D01*
X0023075Y0272841D01*
X0023158Y0272924D01*
X0026141Y0272924D01*
X0026166Y0272900D01*
X0034577Y0272900D01*
X0035643Y0272458D01*
X0036458Y0271643D01*
X0038143Y0269958D01*
X0038143Y0269958D01*
X0038958Y0269143D01*
X0039400Y0268077D01*
X0039400Y0247991D01*
X0039750Y0247146D01*
X0039750Y0245854D01*
X0039400Y0245009D01*
X0039400Y0100923D01*
X0038958Y0099857D01*
X0038143Y0099041D01*
X0036410Y0097309D01*
X0035345Y0096868D01*
X0032058Y0096868D01*
X0032058Y0094733D01*
X0031062Y0093737D01*
X0025717Y0093737D01*
X0025043Y0094411D01*
X0024370Y0093737D01*
X0018630Y0093737D01*
X0017957Y0094411D01*
X0017283Y0093737D01*
X0011938Y0093737D01*
X0011313Y0094362D02*
X0006000Y0094362D01*
X0006000Y0095360D02*
X0010942Y0095360D01*
X0010942Y0096359D02*
X0006000Y0096359D01*
X0006000Y0097357D02*
X0010942Y0097357D01*
X0010942Y0098356D02*
X0006000Y0098356D01*
X0006000Y0099354D02*
X0010942Y0099354D01*
X0010942Y0100353D02*
X0006000Y0100353D01*
X0006000Y0101351D02*
X0010942Y0101351D01*
X0010942Y0102350D02*
X0006000Y0102350D01*
X0006000Y0103348D02*
X0010942Y0103348D01*
X0010942Y0104347D02*
X0006000Y0104347D01*
X0006000Y0105345D02*
X0011484Y0105345D01*
X0012410Y0106344D02*
X0006000Y0106344D01*
X0006000Y0107342D02*
X0012410Y0107342D01*
X0012410Y0108341D02*
X0006000Y0108341D01*
X0006000Y0109339D02*
X0012410Y0109339D01*
X0012410Y0110338D02*
X0006000Y0110338D01*
X0006000Y0111336D02*
X0012410Y0111336D01*
X0011804Y0112335D02*
X0006000Y0112335D01*
X0006000Y0113333D02*
X0010942Y0113333D01*
X0010942Y0114332D02*
X0006000Y0114332D01*
X0006000Y0115330D02*
X0010942Y0115330D01*
X0010942Y0116329D02*
X0006000Y0116329D01*
X0006000Y0117327D02*
X0010942Y0117327D01*
X0010942Y0118326D02*
X0006000Y0118326D01*
X0006000Y0119324D02*
X0010942Y0119324D01*
X0010942Y0120323D02*
X0006000Y0120323D01*
X0006000Y0121321D02*
X0010942Y0121321D01*
X0010942Y0122320D02*
X0006000Y0122320D01*
X0006000Y0123318D02*
X0010993Y0123318D01*
X0011365Y0129309D02*
X0006000Y0129309D01*
X0006000Y0128311D02*
X0033600Y0128311D01*
X0033600Y0129309D02*
X0031635Y0129309D01*
X0032058Y0130308D02*
X0033600Y0130308D01*
X0033600Y0131306D02*
X0032058Y0131306D01*
X0033600Y0127312D02*
X0006000Y0127312D01*
X0006000Y0126314D02*
X0033600Y0126314D01*
X0033600Y0125315D02*
X0006000Y0125315D01*
X0006000Y0124317D02*
X0033600Y0124317D01*
X0033600Y0123318D02*
X0031654Y0123318D01*
X0031858Y0122320D02*
X0033600Y0122320D01*
X0033600Y0121321D02*
X0031858Y0121321D01*
X0031858Y0120323D02*
X0033600Y0120323D01*
X0033600Y0119324D02*
X0031858Y0119324D01*
X0031858Y0117327D02*
X0033600Y0117327D01*
X0033600Y0116329D02*
X0031858Y0116329D01*
X0031858Y0115330D02*
X0033600Y0115330D01*
X0033600Y0114332D02*
X0031858Y0114332D01*
X0031759Y0113333D02*
X0033600Y0113333D01*
X0033600Y0112335D02*
X0024503Y0112335D01*
X0023700Y0111336D02*
X0033600Y0111336D01*
X0033600Y0110338D02*
X0023700Y0110338D01*
X0023700Y0109339D02*
X0033600Y0109339D01*
X0033600Y0108341D02*
X0023700Y0108341D01*
X0023700Y0107342D02*
X0033600Y0107342D01*
X0033600Y0106344D02*
X0023700Y0106344D01*
X0024823Y0105345D02*
X0025264Y0105345D01*
X0027905Y0113333D02*
X0028874Y0113333D01*
X0028874Y0114332D02*
X0027905Y0114332D01*
X0027905Y0115330D02*
X0028874Y0115330D01*
X0028874Y0116329D02*
X0027905Y0116329D01*
X0027905Y0117327D02*
X0028874Y0117327D01*
X0028874Y0118326D02*
X0033600Y0118326D01*
X0033600Y0105345D02*
X0031516Y0105345D01*
X0032058Y0104347D02*
X0033600Y0104347D01*
X0033600Y0103348D02*
X0032058Y0103348D01*
X0032058Y0096359D02*
X0041604Y0096359D01*
X0041604Y0095633D02*
X0041604Y0097315D01*
X0045870Y0097315D01*
X0045870Y0098283D01*
X0041604Y0098283D01*
X0041604Y0099965D01*
X0041707Y0100347D01*
X0041904Y0100689D01*
X0042183Y0100968D01*
X0042525Y0101165D01*
X0042907Y0101268D01*
X0045870Y0101268D01*
X0045870Y0098284D01*
X0046839Y0098284D01*
X0046839Y0101268D01*
X0049802Y0101268D01*
X0050183Y0101165D01*
X0050525Y0100968D01*
X0050805Y0100689D01*
X0051002Y0100347D01*
X0051104Y0099965D01*
X0051104Y0098283D01*
X0046839Y0098283D01*
X0046839Y0097315D01*
X0051104Y0097315D01*
X0051104Y0095633D01*
X0051002Y0095252D01*
X0050805Y0094910D01*
X0050525Y0094630D01*
X0050183Y0094433D01*
X0049802Y0094331D01*
X0046839Y0094331D01*
X0046839Y0097315D01*
X0045870Y0097315D01*
X0045870Y0094331D01*
X0042907Y0094331D01*
X0042525Y0094433D01*
X0042183Y0094630D01*
X0041904Y0094910D01*
X0041707Y0095252D01*
X0041604Y0095633D01*
X0041678Y0095360D02*
X0032058Y0095360D01*
X0031687Y0094362D02*
X0042792Y0094362D01*
X0041604Y0098356D02*
X0037457Y0098356D01*
X0038455Y0099354D02*
X0041604Y0099354D01*
X0041710Y0100353D02*
X0039164Y0100353D01*
X0039400Y0101351D02*
X0062575Y0101351D01*
X0062691Y0101468D02*
X0061696Y0100472D01*
X0061696Y0095127D01*
X0062691Y0094131D01*
X0070600Y0094131D01*
X0071596Y0095127D01*
X0071596Y0100472D01*
X0070600Y0101468D01*
X0068700Y0101468D01*
X0068700Y0112411D01*
X0067411Y0113700D01*
X0048554Y0113700D01*
X0048554Y0116532D01*
X0050308Y0116532D01*
X0051304Y0117528D01*
X0051304Y0122873D01*
X0050308Y0123869D01*
X0042400Y0123869D01*
X0041404Y0122873D01*
X0041404Y0117528D01*
X0042400Y0116532D01*
X0044154Y0116532D01*
X0044154Y0110734D01*
X0044300Y0110589D01*
X0045589Y0109300D01*
X0064300Y0109300D01*
X0064300Y0101468D01*
X0062691Y0101468D01*
X0061696Y0100353D02*
X0050999Y0100353D01*
X0051104Y0099354D02*
X0061696Y0099354D01*
X0061696Y0098356D02*
X0051104Y0098356D01*
X0051104Y0096359D02*
X0061696Y0096359D01*
X0061696Y0097357D02*
X0046839Y0097357D01*
X0045870Y0097357D02*
X0036458Y0097357D01*
X0039400Y0102350D02*
X0064300Y0102350D01*
X0064300Y0103348D02*
X0039400Y0103348D01*
X0039400Y0104347D02*
X0064300Y0104347D01*
X0064300Y0105345D02*
X0039400Y0105345D01*
X0039400Y0106344D02*
X0064300Y0106344D01*
X0064300Y0107342D02*
X0039400Y0107342D01*
X0039400Y0108341D02*
X0064300Y0108341D01*
X0066500Y0111500D02*
X0066500Y0097945D01*
X0066646Y0097799D01*
X0068700Y0102350D02*
X0072100Y0102350D01*
X0072100Y0103348D02*
X0068700Y0103348D01*
X0068700Y0104347D02*
X0072100Y0104347D01*
X0072100Y0105345D02*
X0068700Y0105345D01*
X0068700Y0106344D02*
X0072100Y0106344D01*
X0072100Y0107342D02*
X0068700Y0107342D01*
X0068700Y0108341D02*
X0072100Y0108341D01*
X0072100Y0109339D02*
X0068700Y0109339D01*
X0068700Y0110338D02*
X0072100Y0110338D01*
X0072100Y0111336D02*
X0068700Y0111336D01*
X0068700Y0112335D02*
X0072100Y0112335D01*
X0072100Y0113333D02*
X0067778Y0113333D01*
X0066500Y0111500D02*
X0046500Y0111500D01*
X0046354Y0111646D01*
X0046354Y0120201D01*
X0044154Y0116329D02*
X0039400Y0116329D01*
X0039400Y0117327D02*
X0041605Y0117327D01*
X0041404Y0118326D02*
X0039400Y0118326D01*
X0039400Y0119324D02*
X0041404Y0119324D01*
X0041404Y0120323D02*
X0039400Y0120323D01*
X0039400Y0121321D02*
X0041404Y0121321D01*
X0041404Y0122320D02*
X0039400Y0122320D01*
X0039400Y0123318D02*
X0041849Y0123318D01*
X0039400Y0124317D02*
X0072100Y0124317D01*
X0072100Y0125315D02*
X0039400Y0125315D01*
X0039400Y0126314D02*
X0072100Y0126314D01*
X0072100Y0127312D02*
X0039400Y0127312D01*
X0039400Y0128311D02*
X0072100Y0128311D01*
X0072100Y0129309D02*
X0070779Y0129309D01*
X0070600Y0129131D02*
X0071596Y0130127D01*
X0071596Y0135472D01*
X0070600Y0136468D01*
X0068700Y0136468D01*
X0068700Y0147411D01*
X0067411Y0148700D01*
X0048554Y0148700D01*
X0048554Y0151532D01*
X0050308Y0151532D01*
X0051304Y0152528D01*
X0051304Y0157873D01*
X0050308Y0158869D01*
X0042400Y0158869D01*
X0041404Y0157873D01*
X0041404Y0152528D01*
X0042400Y0151532D01*
X0044154Y0151532D01*
X0044154Y0145734D01*
X0044300Y0145589D01*
X0045589Y0144300D01*
X0064300Y0144300D01*
X0064300Y0136468D01*
X0062691Y0136468D01*
X0061696Y0135472D01*
X0061696Y0130127D01*
X0062691Y0129131D01*
X0070600Y0129131D01*
X0071596Y0130308D02*
X0072100Y0130308D01*
X0072100Y0131306D02*
X0071596Y0131306D01*
X0071596Y0132305D02*
X0072100Y0132305D01*
X0072100Y0133303D02*
X0071596Y0133303D01*
X0071596Y0134302D02*
X0072100Y0134302D01*
X0072100Y0135301D02*
X0071596Y0135301D01*
X0072100Y0136299D02*
X0070769Y0136299D01*
X0072100Y0137298D02*
X0068700Y0137298D01*
X0068700Y0138296D02*
X0072100Y0138296D01*
X0072100Y0139295D02*
X0068700Y0139295D01*
X0068700Y0140293D02*
X0072100Y0140293D01*
X0072100Y0141292D02*
X0068700Y0141292D01*
X0068700Y0142290D02*
X0072100Y0142290D01*
X0072100Y0143289D02*
X0068700Y0143289D01*
X0068700Y0144287D02*
X0072100Y0144287D01*
X0072100Y0145286D02*
X0068700Y0145286D01*
X0068700Y0146284D02*
X0072100Y0146284D01*
X0072100Y0147283D02*
X0068700Y0147283D01*
X0067830Y0148281D02*
X0072100Y0148281D01*
X0072100Y0149280D02*
X0048554Y0149280D01*
X0048554Y0150278D02*
X0072100Y0150278D01*
X0072100Y0151277D02*
X0048554Y0151277D01*
X0051051Y0152275D02*
X0061949Y0152275D01*
X0061696Y0153274D02*
X0051304Y0153274D01*
X0051304Y0154272D02*
X0061696Y0154272D01*
X0061696Y0155271D02*
X0051304Y0155271D01*
X0051304Y0156269D02*
X0061696Y0156269D01*
X0061696Y0157268D02*
X0051304Y0157268D01*
X0050911Y0158266D02*
X0062088Y0158266D01*
X0062691Y0164131D02*
X0070600Y0164131D01*
X0071596Y0165127D01*
X0071596Y0170472D01*
X0070600Y0171468D01*
X0068700Y0171468D01*
X0068700Y0182411D01*
X0067411Y0183700D01*
X0048554Y0183700D01*
X0048554Y0186532D01*
X0050308Y0186532D01*
X0051304Y0187528D01*
X0051304Y0192873D01*
X0050308Y0193869D01*
X0042400Y0193869D01*
X0041404Y0192873D01*
X0041404Y0187528D01*
X0042400Y0186532D01*
X0044154Y0186532D01*
X0044154Y0180734D01*
X0044300Y0180589D01*
X0045589Y0179300D01*
X0064300Y0179300D01*
X0064300Y0171468D01*
X0062691Y0171468D01*
X0061696Y0170472D01*
X0061696Y0165127D01*
X0062691Y0164131D01*
X0062565Y0164257D02*
X0039400Y0164257D01*
X0039400Y0163259D02*
X0072100Y0163259D01*
X0072100Y0164257D02*
X0070726Y0164257D01*
X0071596Y0165256D02*
X0072100Y0165256D01*
X0072100Y0166254D02*
X0071596Y0166254D01*
X0071596Y0167253D02*
X0072100Y0167253D01*
X0072100Y0168251D02*
X0071596Y0168251D01*
X0071596Y0169250D02*
X0072100Y0169250D01*
X0072100Y0170248D02*
X0071596Y0170248D01*
X0072100Y0171247D02*
X0070821Y0171247D01*
X0072100Y0172245D02*
X0068700Y0172245D01*
X0068700Y0173244D02*
X0072100Y0173244D01*
X0072100Y0174242D02*
X0068700Y0174242D01*
X0068700Y0175241D02*
X0072100Y0175241D01*
X0072100Y0176239D02*
X0068700Y0176239D01*
X0068700Y0177238D02*
X0072100Y0177238D01*
X0072100Y0178237D02*
X0068700Y0178237D01*
X0068700Y0179235D02*
X0072100Y0179235D01*
X0072100Y0180234D02*
X0068700Y0180234D01*
X0068700Y0181232D02*
X0072100Y0181232D01*
X0072100Y0182231D02*
X0068700Y0182231D01*
X0067882Y0183229D02*
X0072100Y0183229D01*
X0072100Y0184228D02*
X0048554Y0184228D01*
X0048554Y0185226D02*
X0072100Y0185226D01*
X0072100Y0186225D02*
X0048554Y0186225D01*
X0050999Y0187223D02*
X0062001Y0187223D01*
X0061696Y0188222D02*
X0051304Y0188222D01*
X0051304Y0189220D02*
X0061696Y0189220D01*
X0061696Y0190219D02*
X0051304Y0190219D01*
X0051304Y0191217D02*
X0061696Y0191217D01*
X0061696Y0192216D02*
X0051304Y0192216D01*
X0050964Y0193214D02*
X0062036Y0193214D01*
X0062691Y0199131D02*
X0061696Y0200127D01*
X0061696Y0205472D01*
X0062691Y0206468D01*
X0064300Y0206468D01*
X0064300Y0214300D01*
X0045589Y0214300D01*
X0044300Y0215589D01*
X0044154Y0215734D01*
X0044154Y0221532D01*
X0042400Y0221532D01*
X0041404Y0222528D01*
X0041404Y0227873D01*
X0042400Y0228869D01*
X0050308Y0228869D01*
X0051304Y0227873D01*
X0051304Y0222528D01*
X0050308Y0221532D01*
X0048554Y0221532D01*
X0048554Y0218700D01*
X0067411Y0218700D01*
X0068700Y0217411D01*
X0068700Y0206468D01*
X0070600Y0206468D01*
X0071596Y0205472D01*
X0071596Y0200127D01*
X0070600Y0199131D01*
X0062691Y0199131D01*
X0062617Y0199205D02*
X0039400Y0199205D01*
X0039400Y0198207D02*
X0072100Y0198207D01*
X0072100Y0199205D02*
X0070674Y0199205D01*
X0071596Y0200204D02*
X0072100Y0200204D01*
X0072100Y0201202D02*
X0071596Y0201202D01*
X0071596Y0202201D02*
X0072100Y0202201D01*
X0072100Y0203199D02*
X0071596Y0203199D01*
X0071596Y0204198D02*
X0072100Y0204198D01*
X0072100Y0205196D02*
X0071596Y0205196D01*
X0072100Y0206195D02*
X0070873Y0206195D01*
X0072100Y0207193D02*
X0068700Y0207193D01*
X0068700Y0208192D02*
X0072100Y0208192D01*
X0072100Y0209190D02*
X0068700Y0209190D01*
X0068700Y0210189D02*
X0072100Y0210189D01*
X0072100Y0211187D02*
X0068700Y0211187D01*
X0068700Y0212186D02*
X0072100Y0212186D01*
X0072100Y0213184D02*
X0068700Y0213184D01*
X0068700Y0214183D02*
X0072100Y0214183D01*
X0072100Y0215181D02*
X0068700Y0215181D01*
X0068700Y0216180D02*
X0072100Y0216180D01*
X0072100Y0217178D02*
X0068700Y0217178D01*
X0067934Y0218177D02*
X0072100Y0218177D01*
X0072100Y0219175D02*
X0048554Y0219175D01*
X0048554Y0220174D02*
X0072100Y0220174D01*
X0072100Y0221172D02*
X0048554Y0221172D01*
X0050947Y0222171D02*
X0062053Y0222171D01*
X0061696Y0223170D02*
X0051304Y0223170D01*
X0051304Y0224168D02*
X0061696Y0224168D01*
X0061696Y0225167D02*
X0051304Y0225167D01*
X0051304Y0226165D02*
X0061696Y0226165D01*
X0061696Y0227164D02*
X0051304Y0227164D01*
X0051016Y0228162D02*
X0061984Y0228162D01*
X0062691Y0234131D02*
X0070600Y0234131D01*
X0071596Y0235127D01*
X0071596Y0240472D01*
X0070600Y0241468D01*
X0068700Y0241468D01*
X0068700Y0252411D01*
X0067411Y0253700D01*
X0048554Y0253700D01*
X0048554Y0256532D01*
X0050308Y0256532D01*
X0051304Y0257528D01*
X0051304Y0262873D01*
X0050308Y0263869D01*
X0042400Y0263869D01*
X0041404Y0262873D01*
X0041404Y0257528D01*
X0042400Y0256532D01*
X0044154Y0256532D01*
X0044154Y0250734D01*
X0044300Y0250589D01*
X0045589Y0249300D01*
X0064300Y0249300D01*
X0064300Y0241468D01*
X0062691Y0241468D01*
X0061696Y0240472D01*
X0061696Y0235127D01*
X0062691Y0234131D01*
X0062669Y0234153D02*
X0039400Y0234153D01*
X0039400Y0233155D02*
X0072100Y0233155D01*
X0072100Y0234153D02*
X0070622Y0234153D01*
X0071596Y0235152D02*
X0072100Y0235152D01*
X0072100Y0236150D02*
X0071596Y0236150D01*
X0071596Y0237149D02*
X0072100Y0237149D01*
X0072100Y0238147D02*
X0071596Y0238147D01*
X0071596Y0239146D02*
X0072100Y0239146D01*
X0072100Y0240144D02*
X0071596Y0240144D01*
X0072100Y0241143D02*
X0070925Y0241143D01*
X0072047Y0245137D02*
X0068700Y0245137D01*
X0068700Y0246135D02*
X0071750Y0246135D01*
X0071750Y0247134D02*
X0068700Y0247134D01*
X0068700Y0248132D02*
X0072100Y0248132D01*
X0072100Y0249131D02*
X0068700Y0249131D01*
X0068700Y0250129D02*
X0072100Y0250129D01*
X0072100Y0251128D02*
X0068700Y0251128D01*
X0068700Y0252126D02*
X0072100Y0252126D01*
X0072100Y0253125D02*
X0067986Y0253125D01*
X0066500Y0251500D02*
X0066500Y0237945D01*
X0066646Y0237799D01*
X0068700Y0242141D02*
X0072100Y0242141D01*
X0072100Y0243140D02*
X0068700Y0243140D01*
X0068700Y0244138D02*
X0072100Y0244138D01*
X0072100Y0254123D02*
X0048554Y0254123D01*
X0048554Y0255122D02*
X0072100Y0255122D01*
X0072100Y0256120D02*
X0048554Y0256120D01*
X0050895Y0257119D02*
X0062105Y0257119D01*
X0061696Y0258117D02*
X0051304Y0258117D01*
X0051304Y0259116D02*
X0061696Y0259116D01*
X0061696Y0260114D02*
X0051304Y0260114D01*
X0051304Y0261113D02*
X0061696Y0261113D01*
X0061696Y0262111D02*
X0051304Y0262111D01*
X0051068Y0263110D02*
X0061932Y0263110D01*
X0062691Y0269131D02*
X0061696Y0270127D01*
X0061696Y0275472D01*
X0062691Y0276468D01*
X0070600Y0276468D01*
X0071596Y0275472D01*
X0071596Y0270127D01*
X0070600Y0269131D01*
X0062691Y0269131D01*
X0061723Y0270100D02*
X0050914Y0270100D01*
X0051002Y0270252D02*
X0051104Y0270633D01*
X0051104Y0272315D01*
X0046839Y0272315D01*
X0046839Y0273283D01*
X0051104Y0273283D01*
X0051104Y0274965D01*
X0051002Y0275347D01*
X0050805Y0275689D01*
X0050525Y0275968D01*
X0050183Y0276165D01*
X0049802Y0276268D01*
X0046839Y0276268D01*
X0046839Y0273284D01*
X0045870Y0273284D01*
X0045870Y0276268D01*
X0042907Y0276268D01*
X0042525Y0276165D01*
X0042183Y0275968D01*
X0041904Y0275689D01*
X0041707Y0275347D01*
X0041604Y0274965D01*
X0041604Y0273283D01*
X0045870Y0273283D01*
X0045870Y0272315D01*
X0041604Y0272315D01*
X0041604Y0270633D01*
X0041707Y0270252D01*
X0041904Y0269910D01*
X0042183Y0269630D01*
X0042525Y0269433D01*
X0042907Y0269331D01*
X0045870Y0269331D01*
X0045870Y0272315D01*
X0046839Y0272315D01*
X0046839Y0269331D01*
X0049802Y0269331D01*
X0050183Y0269433D01*
X0050525Y0269630D01*
X0050805Y0269910D01*
X0051002Y0270252D01*
X0051104Y0271098D02*
X0061696Y0271098D01*
X0061696Y0272097D02*
X0051104Y0272097D01*
X0051104Y0274094D02*
X0061696Y0274094D01*
X0061696Y0275092D02*
X0051070Y0275092D01*
X0050313Y0276091D02*
X0062314Y0276091D01*
X0061696Y0273095D02*
X0046839Y0273095D01*
X0045870Y0273095D02*
X0006000Y0273095D01*
X0006000Y0272097D02*
X0016031Y0272097D01*
X0015863Y0271098D02*
X0006000Y0271098D01*
X0006000Y0270100D02*
X0015863Y0270100D01*
X0015863Y0269101D02*
X0006000Y0269101D01*
X0006000Y0268103D02*
X0015514Y0268103D01*
X0015276Y0267104D02*
X0006000Y0267104D01*
X0006000Y0266105D02*
X0015276Y0266105D01*
X0015393Y0265107D02*
X0006000Y0265107D01*
X0006000Y0264108D02*
X0015863Y0264108D01*
X0015863Y0263110D02*
X0006000Y0263110D01*
X0006000Y0262111D02*
X0015863Y0262111D01*
X0015863Y0261113D02*
X0006000Y0261113D01*
X0006000Y0260114D02*
X0016150Y0260114D01*
X0016150Y0259116D02*
X0006000Y0259116D01*
X0006000Y0258117D02*
X0016150Y0258117D01*
X0016150Y0257119D02*
X0006000Y0257119D01*
X0006000Y0256120D02*
X0016150Y0256120D01*
X0016150Y0255122D02*
X0006000Y0255122D01*
X0006000Y0254123D02*
X0016150Y0254123D01*
X0016150Y0253125D02*
X0006000Y0253125D01*
X0006000Y0252126D02*
X0016150Y0252126D01*
X0016150Y0251128D02*
X0006000Y0251128D01*
X0006000Y0250129D02*
X0016150Y0250129D01*
X0016150Y0249131D02*
X0006000Y0249131D01*
X0006000Y0248132D02*
X0016150Y0248132D01*
X0016150Y0247134D02*
X0006000Y0247134D01*
X0006000Y0246135D02*
X0016150Y0246135D01*
X0016150Y0245137D02*
X0006000Y0245137D01*
X0006000Y0244138D02*
X0016150Y0244138D01*
X0016150Y0243140D02*
X0006000Y0243140D01*
X0006000Y0242141D02*
X0016150Y0242141D01*
X0016150Y0241143D02*
X0006000Y0241143D01*
X0006000Y0240144D02*
X0016150Y0240144D01*
X0016150Y0239146D02*
X0006000Y0239146D01*
X0006000Y0238147D02*
X0016150Y0238147D01*
X0016083Y0237149D02*
X0006000Y0237149D01*
X0006000Y0236150D02*
X0015863Y0236150D01*
X0015863Y0235152D02*
X0006000Y0235152D01*
X0006000Y0234153D02*
X0015863Y0234153D01*
X0015544Y0233155D02*
X0006000Y0233155D01*
X0006000Y0232156D02*
X0015276Y0232156D01*
X0015276Y0231158D02*
X0006000Y0231158D01*
X0006000Y0230159D02*
X0015371Y0230159D01*
X0015863Y0229161D02*
X0006000Y0229161D01*
X0006000Y0228162D02*
X0015863Y0228162D01*
X0015863Y0227164D02*
X0006000Y0227164D01*
X0006000Y0226165D02*
X0015863Y0226165D01*
X0016150Y0225167D02*
X0006000Y0225167D01*
X0006000Y0224168D02*
X0016150Y0224168D01*
X0016150Y0223170D02*
X0006000Y0223170D01*
X0006000Y0222171D02*
X0016150Y0222171D01*
X0016150Y0221172D02*
X0006000Y0221172D01*
X0006000Y0220174D02*
X0016150Y0220174D01*
X0016150Y0219175D02*
X0006000Y0219175D01*
X0006000Y0218177D02*
X0016150Y0218177D01*
X0016150Y0217178D02*
X0006000Y0217178D01*
X0006000Y0216180D02*
X0016150Y0216180D01*
X0016150Y0215181D02*
X0006000Y0215181D01*
X0006000Y0214183D02*
X0016150Y0214183D01*
X0016150Y0213184D02*
X0006000Y0213184D01*
X0006000Y0212186D02*
X0016150Y0212186D01*
X0016150Y0211187D02*
X0006000Y0211187D01*
X0006000Y0210189D02*
X0016150Y0210189D01*
X0016150Y0209190D02*
X0006000Y0209190D01*
X0006000Y0208192D02*
X0016150Y0208192D01*
X0016150Y0207193D02*
X0006000Y0207193D01*
X0006000Y0206195D02*
X0016150Y0206195D01*
X0016150Y0205196D02*
X0006000Y0205196D01*
X0006000Y0204198D02*
X0016150Y0204198D01*
X0016150Y0203199D02*
X0006000Y0203199D01*
X0006000Y0202201D02*
X0016135Y0202201D01*
X0015863Y0201202D02*
X0006000Y0201202D01*
X0006000Y0200204D02*
X0015863Y0200204D01*
X0015863Y0199205D02*
X0006000Y0199205D01*
X0006000Y0198207D02*
X0015574Y0198207D01*
X0015276Y0197208D02*
X0006000Y0197208D01*
X0006000Y0196210D02*
X0015276Y0196210D01*
X0015357Y0195211D02*
X0006000Y0195211D01*
X0006000Y0194213D02*
X0015863Y0194213D01*
X0015863Y0193214D02*
X0006000Y0193214D01*
X0006000Y0192216D02*
X0015863Y0192216D01*
X0015863Y0191217D02*
X0006000Y0191217D01*
X0006000Y0190219D02*
X0016150Y0190219D01*
X0016150Y0189220D02*
X0006000Y0189220D01*
X0006000Y0188222D02*
X0016150Y0188222D01*
X0016150Y0187223D02*
X0006000Y0187223D01*
X0006000Y0186225D02*
X0015613Y0186225D01*
X0014615Y0185226D02*
X0006000Y0185226D01*
X0006000Y0184228D02*
X0013616Y0184228D01*
X0012618Y0183229D02*
X0006000Y0183229D01*
X0006000Y0182231D02*
X0012300Y0182231D01*
X0012300Y0181232D02*
X0006000Y0181232D01*
X0006000Y0180234D02*
X0012300Y0180234D01*
X0012300Y0179235D02*
X0006000Y0179235D01*
X0006000Y0178237D02*
X0012300Y0178237D01*
X0012300Y0177238D02*
X0006000Y0177238D01*
X0006000Y0176239D02*
X0012300Y0176239D01*
X0011380Y0175241D02*
X0006000Y0175241D01*
X0006000Y0174242D02*
X0010942Y0174242D01*
X0010942Y0173244D02*
X0006000Y0173244D01*
X0006000Y0172245D02*
X0010942Y0172245D01*
X0010942Y0171247D02*
X0006000Y0171247D01*
X0006000Y0170248D02*
X0010942Y0170248D01*
X0010942Y0169250D02*
X0006000Y0169250D01*
X0006000Y0168251D02*
X0010942Y0168251D01*
X0010942Y0167253D02*
X0006000Y0167253D01*
X0006000Y0166254D02*
X0010942Y0166254D01*
X0010942Y0165256D02*
X0006000Y0165256D01*
X0006000Y0164257D02*
X0011417Y0164257D01*
X0010942Y0158266D02*
X0006000Y0158266D01*
X0006000Y0157268D02*
X0010942Y0157268D01*
X0010942Y0156269D02*
X0006000Y0156269D01*
X0006000Y0155271D02*
X0010942Y0155271D01*
X0010942Y0154272D02*
X0006000Y0154272D01*
X0006000Y0153274D02*
X0010942Y0153274D01*
X0010942Y0152275D02*
X0006000Y0152275D01*
X0006000Y0151277D02*
X0010942Y0151277D01*
X0010942Y0150278D02*
X0006000Y0150278D01*
X0006000Y0149280D02*
X0010942Y0149280D01*
X0010942Y0148281D02*
X0006000Y0148281D01*
X0006000Y0147283D02*
X0011856Y0147283D01*
X0012410Y0146284D02*
X0006000Y0146284D01*
X0006000Y0145286D02*
X0012410Y0145286D01*
X0012410Y0144287D02*
X0006000Y0144287D01*
X0006000Y0143289D02*
X0012410Y0143289D01*
X0012410Y0142290D02*
X0006000Y0142290D01*
X0006000Y0141292D02*
X0012410Y0141292D01*
X0011432Y0140293D02*
X0006000Y0140293D01*
X0006000Y0139295D02*
X0010942Y0139295D01*
X0010942Y0138296D02*
X0006000Y0138296D01*
X0006000Y0137298D02*
X0010942Y0137298D01*
X0010942Y0136299D02*
X0006000Y0136299D01*
X0006000Y0135301D02*
X0010942Y0135301D01*
X0010942Y0134302D02*
X0006000Y0134302D01*
X0006000Y0133303D02*
X0010942Y0133303D01*
X0010942Y0132305D02*
X0006000Y0132305D01*
X0006000Y0131306D02*
X0010942Y0131306D01*
X0010942Y0130308D02*
X0006000Y0130308D01*
X0014610Y0134768D02*
X0014610Y0153232D01*
X0017803Y0164257D02*
X0018110Y0164257D01*
X0014610Y0169768D02*
X0014500Y0169878D01*
X0014500Y0182000D01*
X0018350Y0185850D01*
X0018350Y0193154D01*
X0018154Y0196500D02*
X0018154Y0196500D01*
X0021031Y0196500D01*
X0021031Y0196231D01*
X0021769Y0196231D01*
X0021769Y0196769D01*
X0021031Y0196769D01*
X0021031Y0196500D01*
X0018154Y0196500D01*
X0018350Y0199846D02*
X0018350Y0228154D01*
X0018154Y0231500D02*
X0018154Y0231500D01*
X0021031Y0231500D01*
X0021031Y0231231D01*
X0021769Y0231231D01*
X0021769Y0231769D01*
X0021031Y0231769D01*
X0021031Y0231500D01*
X0018154Y0231500D01*
X0018350Y0234846D02*
X0018350Y0263154D01*
X0018154Y0266500D02*
X0018154Y0266500D01*
X0021031Y0266500D01*
X0021031Y0266231D01*
X0021750Y0266231D01*
X0021750Y0266769D01*
X0021031Y0266769D01*
X0021031Y0266500D01*
X0018154Y0266500D01*
X0021500Y0263154D02*
X0021500Y0234846D01*
X0023700Y0237924D02*
X0023700Y0260276D01*
X0024650Y0260276D01*
X0025634Y0260276D01*
X0026016Y0260378D01*
X0026358Y0260575D01*
X0026637Y0260855D01*
X0026835Y0261197D01*
X0026937Y0261578D01*
X0026937Y0263153D01*
X0024650Y0263153D01*
X0024650Y0263154D01*
X0026937Y0263154D01*
X0026937Y0264021D01*
X0027924Y0265008D01*
X0027924Y0267100D01*
X0032799Y0267100D01*
X0033600Y0266299D01*
X0033600Y0247991D01*
X0033250Y0247146D01*
X0033250Y0245854D01*
X0033600Y0245009D01*
X0033600Y0237746D01*
X0026319Y0237746D01*
X0026141Y0237924D01*
X0023700Y0237924D01*
X0023700Y0238147D02*
X0033600Y0238147D01*
X0033600Y0239146D02*
X0023700Y0239146D01*
X0023700Y0240144D02*
X0033600Y0240144D01*
X0033600Y0241143D02*
X0023700Y0241143D01*
X0023700Y0242141D02*
X0033600Y0242141D01*
X0033600Y0243140D02*
X0023700Y0243140D01*
X0023700Y0244138D02*
X0033600Y0244138D01*
X0033547Y0245137D02*
X0023700Y0245137D01*
X0023700Y0246135D02*
X0033250Y0246135D01*
X0033250Y0247134D02*
X0023700Y0247134D01*
X0023700Y0248132D02*
X0033600Y0248132D01*
X0033600Y0249131D02*
X0023700Y0249131D01*
X0023700Y0250129D02*
X0033600Y0250129D01*
X0033600Y0251128D02*
X0023700Y0251128D01*
X0023700Y0252126D02*
X0033600Y0252126D01*
X0033600Y0253125D02*
X0023700Y0253125D01*
X0023700Y0254123D02*
X0033600Y0254123D01*
X0033600Y0255122D02*
X0023700Y0255122D01*
X0023700Y0256120D02*
X0033600Y0256120D01*
X0033600Y0257119D02*
X0023700Y0257119D01*
X0023700Y0258117D02*
X0033600Y0258117D01*
X0033600Y0259116D02*
X0023700Y0259116D01*
X0023700Y0260114D02*
X0033600Y0260114D01*
X0033600Y0261113D02*
X0026786Y0261113D01*
X0026937Y0262111D02*
X0033600Y0262111D01*
X0033600Y0263110D02*
X0026937Y0263110D01*
X0027024Y0264108D02*
X0033600Y0264108D01*
X0033600Y0265107D02*
X0027924Y0265107D01*
X0027924Y0266105D02*
X0033600Y0266105D01*
X0036005Y0272097D02*
X0041604Y0272097D01*
X0041604Y0271098D02*
X0037003Y0271098D01*
X0038002Y0270100D02*
X0041794Y0270100D01*
X0041604Y0274094D02*
X0006000Y0274094D01*
X0006000Y0275092D02*
X0041638Y0275092D01*
X0042396Y0276091D02*
X0006000Y0276091D01*
X0021500Y0228154D02*
X0021500Y0199846D01*
X0023700Y0202924D02*
X0023700Y0225276D01*
X0024650Y0225276D01*
X0025634Y0225276D01*
X0026016Y0225378D01*
X0026358Y0225575D01*
X0026637Y0225855D01*
X0026835Y0226197D01*
X0026937Y0226578D01*
X0026937Y0228153D01*
X0024650Y0228153D01*
X0024650Y0228154D01*
X0026937Y0228154D01*
X0026937Y0229021D01*
X0027924Y0230008D01*
X0027924Y0231946D01*
X0033600Y0231946D01*
X0033600Y0202746D01*
X0026319Y0202746D01*
X0026141Y0202924D01*
X0023700Y0202924D01*
X0023700Y0203199D02*
X0033600Y0203199D01*
X0033600Y0204198D02*
X0023700Y0204198D01*
X0023700Y0205196D02*
X0033600Y0205196D01*
X0033600Y0206195D02*
X0023700Y0206195D01*
X0023700Y0207193D02*
X0033600Y0207193D01*
X0033600Y0208192D02*
X0023700Y0208192D01*
X0023700Y0209190D02*
X0033600Y0209190D01*
X0033600Y0210189D02*
X0023700Y0210189D01*
X0023700Y0211187D02*
X0033600Y0211187D01*
X0033600Y0212186D02*
X0023700Y0212186D01*
X0023700Y0213184D02*
X0033600Y0213184D01*
X0033600Y0214183D02*
X0023700Y0214183D01*
X0023700Y0215181D02*
X0033600Y0215181D01*
X0033600Y0216180D02*
X0023700Y0216180D01*
X0023700Y0217178D02*
X0033600Y0217178D01*
X0033600Y0218177D02*
X0023700Y0218177D01*
X0023700Y0219175D02*
X0033600Y0219175D01*
X0033600Y0220174D02*
X0023700Y0220174D01*
X0023700Y0221172D02*
X0033600Y0221172D01*
X0033600Y0222171D02*
X0023700Y0222171D01*
X0023700Y0223170D02*
X0033600Y0223170D01*
X0033600Y0224168D02*
X0023700Y0224168D01*
X0023700Y0225167D02*
X0033600Y0225167D01*
X0033600Y0226165D02*
X0026817Y0226165D01*
X0026937Y0227164D02*
X0033600Y0227164D01*
X0033600Y0228162D02*
X0026937Y0228162D01*
X0027077Y0229161D02*
X0033600Y0229161D01*
X0033600Y0230159D02*
X0027924Y0230159D01*
X0027924Y0231158D02*
X0033600Y0231158D01*
X0039400Y0231158D02*
X0072100Y0231158D01*
X0072100Y0232156D02*
X0039400Y0232156D01*
X0039400Y0230159D02*
X0072100Y0230159D01*
X0072100Y0229161D02*
X0039400Y0229161D01*
X0039400Y0228162D02*
X0041693Y0228162D01*
X0041404Y0227164D02*
X0039400Y0227164D01*
X0039400Y0226165D02*
X0041404Y0226165D01*
X0041404Y0225167D02*
X0039400Y0225167D01*
X0039400Y0224168D02*
X0041404Y0224168D01*
X0041404Y0223170D02*
X0039400Y0223170D01*
X0039400Y0222171D02*
X0041761Y0222171D01*
X0039400Y0221172D02*
X0044154Y0221172D01*
X0044154Y0220174D02*
X0039400Y0220174D01*
X0039400Y0219175D02*
X0044154Y0219175D01*
X0044154Y0218177D02*
X0039400Y0218177D01*
X0039400Y0217178D02*
X0044154Y0217178D01*
X0044154Y0216180D02*
X0039400Y0216180D01*
X0039400Y0215181D02*
X0044707Y0215181D01*
X0046354Y0216646D02*
X0046500Y0216500D01*
X0066500Y0216500D01*
X0066500Y0202945D01*
X0066646Y0202799D01*
X0064300Y0207193D02*
X0039400Y0207193D01*
X0039400Y0206195D02*
X0042635Y0206195D01*
X0042525Y0206165D02*
X0042183Y0205968D01*
X0041904Y0205689D01*
X0041707Y0205347D01*
X0041604Y0204965D01*
X0041604Y0203283D01*
X0045870Y0203283D01*
X0045870Y0202315D01*
X0041604Y0202315D01*
X0041604Y0200633D01*
X0041707Y0200252D01*
X0041904Y0199910D01*
X0042183Y0199630D01*
X0042525Y0199433D01*
X0042907Y0199331D01*
X0045870Y0199331D01*
X0045870Y0202315D01*
X0046839Y0202315D01*
X0046839Y0203283D01*
X0051104Y0203283D01*
X0051104Y0204965D01*
X0051002Y0205347D01*
X0050805Y0205689D01*
X0050525Y0205968D01*
X0050183Y0206165D01*
X0049802Y0206268D01*
X0046839Y0206268D01*
X0046839Y0203284D01*
X0045870Y0203284D01*
X0045870Y0206268D01*
X0042907Y0206268D01*
X0042525Y0206165D01*
X0041666Y0205196D02*
X0039400Y0205196D01*
X0039400Y0204198D02*
X0041604Y0204198D01*
X0041604Y0202201D02*
X0039400Y0202201D01*
X0039400Y0203199D02*
X0045870Y0203199D01*
X0046839Y0203199D02*
X0061696Y0203199D01*
X0061696Y0202201D02*
X0051104Y0202201D01*
X0051104Y0202315D02*
X0046839Y0202315D01*
X0046839Y0199331D01*
X0049802Y0199331D01*
X0050183Y0199433D01*
X0050525Y0199630D01*
X0050805Y0199910D01*
X0051002Y0200252D01*
X0051104Y0200633D01*
X0051104Y0202315D01*
X0051104Y0201202D02*
X0061696Y0201202D01*
X0061696Y0200204D02*
X0050974Y0200204D01*
X0051104Y0204198D02*
X0061696Y0204198D01*
X0061696Y0205196D02*
X0051042Y0205196D01*
X0050074Y0206195D02*
X0062419Y0206195D01*
X0064300Y0208192D02*
X0039400Y0208192D01*
X0039400Y0209190D02*
X0064300Y0209190D01*
X0064300Y0210189D02*
X0039400Y0210189D01*
X0039400Y0211187D02*
X0064300Y0211187D01*
X0064300Y0212186D02*
X0039400Y0212186D01*
X0039400Y0213184D02*
X0064300Y0213184D01*
X0064300Y0214183D02*
X0039400Y0214183D01*
X0039400Y0201202D02*
X0041604Y0201202D01*
X0041734Y0200204D02*
X0039400Y0200204D01*
X0039400Y0197208D02*
X0072100Y0197208D01*
X0072100Y0196210D02*
X0039400Y0196210D01*
X0039400Y0195211D02*
X0072100Y0195211D01*
X0072100Y0194213D02*
X0039400Y0194213D01*
X0039400Y0193214D02*
X0041745Y0193214D01*
X0041404Y0192216D02*
X0039400Y0192216D01*
X0039400Y0191217D02*
X0041404Y0191217D01*
X0041404Y0190219D02*
X0039400Y0190219D01*
X0039400Y0189220D02*
X0041404Y0189220D01*
X0041404Y0188222D02*
X0039400Y0188222D01*
X0039400Y0187223D02*
X0041709Y0187223D01*
X0039400Y0186225D02*
X0044154Y0186225D01*
X0044154Y0185226D02*
X0039400Y0185226D01*
X0039400Y0184228D02*
X0044154Y0184228D01*
X0044154Y0183229D02*
X0039400Y0183229D01*
X0039400Y0182231D02*
X0044154Y0182231D01*
X0044154Y0181232D02*
X0039400Y0181232D01*
X0039400Y0180234D02*
X0044655Y0180234D01*
X0046354Y0181646D02*
X0046500Y0181500D01*
X0066500Y0181500D01*
X0066500Y0167945D01*
X0066646Y0167799D01*
X0064300Y0172245D02*
X0039400Y0172245D01*
X0039400Y0171247D02*
X0042829Y0171247D01*
X0042907Y0171268D02*
X0042525Y0171165D01*
X0042183Y0170968D01*
X0041904Y0170689D01*
X0041707Y0170347D01*
X0041604Y0169965D01*
X0041604Y0168283D01*
X0045870Y0168283D01*
X0045870Y0167315D01*
X0041604Y0167315D01*
X0041604Y0165633D01*
X0041707Y0165252D01*
X0041904Y0164910D01*
X0042183Y0164630D01*
X0042525Y0164433D01*
X0042907Y0164331D01*
X0045870Y0164331D01*
X0045870Y0167315D01*
X0046839Y0167315D01*
X0046839Y0168283D01*
X0051104Y0168283D01*
X0051104Y0169965D01*
X0051002Y0170347D01*
X0050805Y0170689D01*
X0050525Y0170968D01*
X0050183Y0171165D01*
X0049802Y0171268D01*
X0046839Y0171268D01*
X0046839Y0168284D01*
X0045870Y0168284D01*
X0045870Y0171268D01*
X0042907Y0171268D01*
X0041680Y0170248D02*
X0039400Y0170248D01*
X0039400Y0169250D02*
X0041604Y0169250D01*
X0041604Y0167253D02*
X0039400Y0167253D01*
X0039400Y0168251D02*
X0045870Y0168251D01*
X0046839Y0168251D02*
X0061696Y0168251D01*
X0061696Y0167253D02*
X0051104Y0167253D01*
X0051104Y0167315D02*
X0046839Y0167315D01*
X0046839Y0164331D01*
X0049802Y0164331D01*
X0050183Y0164433D01*
X0050525Y0164630D01*
X0050805Y0164910D01*
X0051002Y0165252D01*
X0051104Y0165633D01*
X0051104Y0167315D01*
X0051104Y0166254D02*
X0061696Y0166254D01*
X0061696Y0165256D02*
X0051003Y0165256D01*
X0051104Y0169250D02*
X0061696Y0169250D01*
X0061696Y0170248D02*
X0051028Y0170248D01*
X0049879Y0171247D02*
X0062471Y0171247D01*
X0064300Y0173244D02*
X0039400Y0173244D01*
X0039400Y0174242D02*
X0064300Y0174242D01*
X0064300Y0175241D02*
X0039400Y0175241D01*
X0039400Y0176239D02*
X0064300Y0176239D01*
X0064300Y0177238D02*
X0039400Y0177238D01*
X0039400Y0178237D02*
X0064300Y0178237D01*
X0064300Y0179235D02*
X0039400Y0179235D01*
X0039400Y0166254D02*
X0041604Y0166254D01*
X0041705Y0165256D02*
X0039400Y0165256D01*
X0039400Y0162260D02*
X0072100Y0162260D01*
X0072100Y0161262D02*
X0039400Y0161262D01*
X0039400Y0160263D02*
X0072100Y0160263D01*
X0072100Y0159265D02*
X0039400Y0159265D01*
X0039400Y0158266D02*
X0041797Y0158266D01*
X0041404Y0157268D02*
X0039400Y0157268D01*
X0039400Y0156269D02*
X0041404Y0156269D01*
X0041404Y0155271D02*
X0039400Y0155271D01*
X0039400Y0154272D02*
X0041404Y0154272D01*
X0041404Y0153274D02*
X0039400Y0153274D01*
X0039400Y0152275D02*
X0041657Y0152275D01*
X0039400Y0151277D02*
X0044154Y0151277D01*
X0044154Y0150278D02*
X0039400Y0150278D01*
X0039400Y0149280D02*
X0044154Y0149280D01*
X0044154Y0148281D02*
X0039400Y0148281D01*
X0039400Y0147283D02*
X0044154Y0147283D01*
X0044154Y0146284D02*
X0039400Y0146284D01*
X0039400Y0145286D02*
X0044603Y0145286D01*
X0046354Y0146646D02*
X0046500Y0146500D01*
X0066500Y0146500D01*
X0066500Y0132945D01*
X0066646Y0132799D01*
X0064300Y0137298D02*
X0039400Y0137298D01*
X0039400Y0138296D02*
X0064300Y0138296D01*
X0064300Y0139295D02*
X0039400Y0139295D01*
X0039400Y0140293D02*
X0064300Y0140293D01*
X0064300Y0141292D02*
X0039400Y0141292D01*
X0039400Y0142290D02*
X0064300Y0142290D01*
X0064300Y0143289D02*
X0039400Y0143289D01*
X0039400Y0144287D02*
X0064300Y0144287D01*
X0062523Y0136299D02*
X0039400Y0136299D01*
X0039400Y0135301D02*
X0041694Y0135301D01*
X0041707Y0135347D02*
X0041604Y0134965D01*
X0041604Y0133283D01*
X0045870Y0133283D01*
X0045870Y0132315D01*
X0041604Y0132315D01*
X0041604Y0130633D01*
X0041707Y0130252D01*
X0041904Y0129910D01*
X0042183Y0129630D01*
X0042525Y0129433D01*
X0042907Y0129331D01*
X0045870Y0129331D01*
X0045870Y0132315D01*
X0046839Y0132315D01*
X0046839Y0133283D01*
X0051104Y0133283D01*
X0051104Y0134965D01*
X0051002Y0135347D01*
X0050805Y0135689D01*
X0050525Y0135968D01*
X0050183Y0136165D01*
X0049802Y0136268D01*
X0046839Y0136268D01*
X0046839Y0133284D01*
X0045870Y0133284D01*
X0045870Y0136268D01*
X0042907Y0136268D01*
X0042525Y0136165D01*
X0042183Y0135968D01*
X0041904Y0135689D01*
X0041707Y0135347D01*
X0041604Y0134302D02*
X0039400Y0134302D01*
X0039400Y0133303D02*
X0041604Y0133303D01*
X0041604Y0132305D02*
X0039400Y0132305D01*
X0039400Y0131306D02*
X0041604Y0131306D01*
X0041691Y0130308D02*
X0039400Y0130308D01*
X0039400Y0129309D02*
X0062513Y0129309D01*
X0061696Y0130308D02*
X0051017Y0130308D01*
X0051002Y0130252D02*
X0051104Y0130633D01*
X0051104Y0132315D01*
X0046839Y0132315D01*
X0046839Y0129331D01*
X0049802Y0129331D01*
X0050183Y0129433D01*
X0050525Y0129630D01*
X0050805Y0129910D01*
X0051002Y0130252D01*
X0051104Y0131306D02*
X0061696Y0131306D01*
X0061696Y0132305D02*
X0051104Y0132305D01*
X0051104Y0133303D02*
X0061696Y0133303D01*
X0061696Y0134302D02*
X0051104Y0134302D01*
X0051014Y0135301D02*
X0061696Y0135301D01*
X0062141Y0123318D02*
X0050859Y0123318D01*
X0051304Y0122320D02*
X0061696Y0122320D01*
X0061696Y0121321D02*
X0051304Y0121321D01*
X0051304Y0120323D02*
X0061696Y0120323D01*
X0061696Y0119324D02*
X0051304Y0119324D01*
X0051304Y0118326D02*
X0061696Y0118326D01*
X0061896Y0117327D02*
X0051104Y0117327D01*
X0048554Y0116329D02*
X0072100Y0116329D01*
X0072100Y0115330D02*
X0048554Y0115330D01*
X0048554Y0114332D02*
X0072100Y0114332D01*
X0072100Y0123318D02*
X0071151Y0123318D01*
X0070716Y0101351D02*
X0072100Y0101351D01*
X0072100Y0100353D02*
X0071596Y0100353D01*
X0071596Y0099354D02*
X0072100Y0099354D01*
X0072100Y0098356D02*
X0071596Y0098356D01*
X0071596Y0097357D02*
X0072100Y0097357D01*
X0072100Y0096359D02*
X0071596Y0096359D01*
X0071596Y0095360D02*
X0072100Y0095360D01*
X0072100Y0094362D02*
X0070831Y0094362D01*
X0072100Y0093363D02*
X0006000Y0093363D01*
X0006000Y0092365D02*
X0072100Y0092365D01*
X0072100Y0091366D02*
X0006000Y0091366D01*
X0006000Y0090368D02*
X0072100Y0090368D01*
X0072100Y0089369D02*
X0006000Y0089369D01*
X0014610Y0083232D02*
X0014610Y0033390D01*
X0021500Y0026500D01*
X0021500Y0006500D01*
X0029656Y0031455D02*
X0039300Y0031455D01*
X0039300Y0030457D02*
X0030654Y0030457D01*
X0031653Y0029458D02*
X0039300Y0029458D01*
X0039300Y0028460D02*
X0032651Y0028460D01*
X0032411Y0028700D02*
X0032411Y0028700D01*
X0033650Y0027461D02*
X0039300Y0027461D01*
X0039300Y0026463D02*
X0033700Y0026463D01*
X0033700Y0025464D02*
X0039300Y0025464D01*
X0039300Y0024466D02*
X0033700Y0024466D01*
X0033700Y0023467D02*
X0039300Y0023467D01*
X0039300Y0022469D02*
X0033700Y0022469D01*
X0033700Y0021470D02*
X0039300Y0021470D01*
X0039300Y0020472D02*
X0033700Y0020472D01*
X0033700Y0019473D02*
X0039300Y0019473D01*
X0039300Y0018475D02*
X0033700Y0018475D01*
X0033700Y0017476D02*
X0039300Y0017476D01*
X0039300Y0016478D02*
X0033700Y0016478D01*
X0033700Y0015479D02*
X0039300Y0015479D01*
X0039300Y0014481D02*
X0033700Y0014481D01*
X0033700Y0013482D02*
X0039300Y0013482D01*
X0039300Y0012484D02*
X0033700Y0012484D01*
X0033700Y0011485D02*
X0039300Y0011485D01*
X0037850Y0010487D02*
X0035150Y0010487D01*
X0036107Y0009488D02*
X0036893Y0009488D01*
X0041500Y0006500D02*
X0041500Y0056500D01*
X0046500Y0061500D01*
X0056500Y0061500D01*
X0059846Y0064846D01*
X0059846Y0071500D01*
X0057646Y0067402D02*
X0023700Y0067402D01*
X0023700Y0068400D02*
X0049715Y0068400D01*
X0049507Y0074391D02*
X0048554Y0074391D01*
X0048554Y0075390D02*
X0063946Y0075390D01*
X0063946Y0076388D02*
X0048554Y0076388D01*
X0048554Y0077387D02*
X0063946Y0077387D01*
X0063946Y0078385D02*
X0048554Y0078385D01*
X0048554Y0079384D02*
X0063946Y0079384D01*
X0063946Y0080382D02*
X0048554Y0080382D01*
X0048554Y0081381D02*
X0063946Y0081381D01*
X0063946Y0074391D02*
X0063493Y0074391D01*
X0063712Y0073393D02*
X0063946Y0073393D01*
X0063946Y0072394D02*
X0063712Y0072394D01*
X0063712Y0071396D02*
X0063946Y0071396D01*
X0063946Y0070397D02*
X0063712Y0070397D01*
X0063712Y0069399D02*
X0063946Y0069399D01*
X0063946Y0068400D02*
X0063285Y0068400D01*
X0063946Y0067402D02*
X0062046Y0067402D01*
X0062046Y0066403D02*
X0063946Y0066403D01*
X0063946Y0065405D02*
X0062046Y0065405D01*
X0062046Y0064406D02*
X0063946Y0064406D01*
X0063946Y0063408D02*
X0061519Y0063408D01*
X0060520Y0062409D02*
X0063946Y0062409D01*
X0063946Y0061411D02*
X0059522Y0061411D01*
X0058523Y0060412D02*
X0063946Y0060412D01*
X0063946Y0059414D02*
X0057525Y0059414D01*
X0056295Y0064406D02*
X0023700Y0064406D01*
X0023700Y0063408D02*
X0045296Y0063408D01*
X0044298Y0062409D02*
X0023700Y0062409D01*
X0023700Y0061411D02*
X0043299Y0061411D01*
X0042301Y0060412D02*
X0023700Y0060412D01*
X0023700Y0059414D02*
X0041302Y0059414D01*
X0040304Y0058415D02*
X0023700Y0058415D01*
X0023700Y0057417D02*
X0039305Y0057417D01*
X0039300Y0056418D02*
X0023700Y0056418D01*
X0023700Y0055420D02*
X0039300Y0055420D01*
X0039300Y0054421D02*
X0023700Y0054421D01*
X0023700Y0053423D02*
X0039300Y0053423D01*
X0039300Y0052424D02*
X0023700Y0052424D01*
X0023700Y0051426D02*
X0039300Y0051426D01*
X0039300Y0050427D02*
X0023700Y0050427D01*
X0023700Y0049429D02*
X0039300Y0049429D01*
X0039300Y0048430D02*
X0023700Y0048430D01*
X0023700Y0047432D02*
X0039300Y0047432D01*
X0039300Y0046433D02*
X0023700Y0046433D01*
X0023700Y0045434D02*
X0039300Y0045434D01*
X0039300Y0044436D02*
X0023700Y0044436D01*
X0023700Y0043437D02*
X0039300Y0043437D01*
X0039300Y0042439D02*
X0023700Y0042439D01*
X0023700Y0041440D02*
X0039300Y0041440D01*
X0039300Y0040442D02*
X0023700Y0040442D01*
X0023700Y0039443D02*
X0039300Y0039443D01*
X0039300Y0038445D02*
X0023700Y0038445D01*
X0023700Y0037446D02*
X0039300Y0037446D01*
X0039300Y0036448D02*
X0024663Y0036448D01*
X0025662Y0035449D02*
X0039300Y0035449D01*
X0039300Y0034451D02*
X0026660Y0034451D01*
X0027659Y0033452D02*
X0039300Y0033452D01*
X0039300Y0032454D02*
X0028657Y0032454D01*
X0031500Y0026500D02*
X0031500Y0006500D01*
X0031500Y0026500D02*
X0021500Y0036500D01*
X0021500Y0083232D01*
X0024555Y0077387D02*
X0044154Y0077387D01*
X0044154Y0078385D02*
X0031773Y0078385D01*
X0031858Y0079384D02*
X0044154Y0079384D01*
X0044154Y0080382D02*
X0031858Y0080382D01*
X0031858Y0081381D02*
X0044154Y0081381D01*
X0046354Y0085201D02*
X0046354Y0071646D01*
X0046500Y0071500D01*
X0053154Y0071500D01*
X0057293Y0065405D02*
X0023700Y0065405D01*
X0023700Y0066403D02*
X0057646Y0066403D01*
X0061571Y0056418D02*
X0044529Y0056418D01*
X0043700Y0055420D02*
X0061000Y0055420D01*
X0061000Y0054421D02*
X0043700Y0054421D01*
X0043700Y0053423D02*
X0054321Y0053423D01*
X0053323Y0052424D02*
X0043700Y0052424D01*
X0043700Y0051426D02*
X0052324Y0051426D01*
X0051326Y0050427D02*
X0043700Y0050427D01*
X0043700Y0049429D02*
X0050327Y0049429D01*
X0049329Y0048430D02*
X0043700Y0048430D01*
X0043700Y0047432D02*
X0048747Y0047432D01*
X0048600Y0046433D02*
X0043700Y0046433D01*
X0043700Y0045434D02*
X0048600Y0045434D01*
X0048600Y0044436D02*
X0043700Y0044436D01*
X0043700Y0043437D02*
X0048600Y0043437D01*
X0048600Y0042439D02*
X0043700Y0042439D01*
X0043700Y0041440D02*
X0048600Y0041440D01*
X0048600Y0040442D02*
X0043700Y0040442D01*
X0043700Y0039443D02*
X0048600Y0039443D01*
X0048600Y0038445D02*
X0043700Y0038445D01*
X0043700Y0037446D02*
X0048600Y0037446D01*
X0048600Y0036448D02*
X0043700Y0036448D01*
X0043700Y0035449D02*
X0048600Y0035449D01*
X0048600Y0034451D02*
X0043700Y0034451D01*
X0043700Y0033452D02*
X0048600Y0033452D01*
X0048600Y0032454D02*
X0043700Y0032454D01*
X0043700Y0031455D02*
X0048600Y0031455D01*
X0048600Y0030457D02*
X0043700Y0030457D01*
X0043700Y0029458D02*
X0048600Y0029458D01*
X0048600Y0028460D02*
X0043700Y0028460D01*
X0043700Y0027461D02*
X0048600Y0027461D01*
X0048600Y0026463D02*
X0043700Y0026463D01*
X0043700Y0025464D02*
X0048600Y0025464D01*
X0048600Y0024466D02*
X0043700Y0024466D01*
X0043700Y0023467D02*
X0048600Y0023467D01*
X0048600Y0022469D02*
X0043700Y0022469D01*
X0043700Y0021470D02*
X0048600Y0021470D01*
X0048600Y0020472D02*
X0043700Y0020472D01*
X0043700Y0019473D02*
X0048600Y0019473D01*
X0048600Y0018475D02*
X0043700Y0018475D01*
X0043700Y0017476D02*
X0048600Y0017476D01*
X0048600Y0016478D02*
X0043700Y0016478D01*
X0043700Y0015479D02*
X0048600Y0015479D01*
X0048600Y0014481D02*
X0043700Y0014481D01*
X0043700Y0013482D02*
X0048600Y0013482D01*
X0048600Y0012484D02*
X0043700Y0012484D01*
X0043700Y0011485D02*
X0048600Y0011485D01*
X0047850Y0010487D02*
X0045150Y0010487D01*
X0046107Y0009488D02*
X0046893Y0009488D01*
X0054400Y0011144D02*
X0054400Y0045299D01*
X0057544Y0048443D01*
X0061000Y0048443D01*
X0061000Y0046838D01*
X0061996Y0045843D01*
X0071004Y0045843D01*
X0072000Y0046838D01*
X0072000Y0055847D01*
X0071004Y0056843D01*
X0069346Y0056843D01*
X0069346Y0081532D01*
X0070600Y0081532D01*
X0071368Y0082301D01*
X0075278Y0082301D01*
X0075701Y0082476D01*
X0075701Y0006000D01*
X0066686Y0006000D01*
X0062000Y0006000D01*
X0062000Y0007000D01*
X0061000Y0007000D01*
X0061000Y0011686D01*
X0060282Y0011572D01*
X0059504Y0011319D01*
X0058775Y0010947D01*
X0058112Y0010466D01*
X0057534Y0009888D01*
X0057053Y0009225D01*
X0056681Y0008496D01*
X0056609Y0008276D01*
X0056078Y0009559D01*
X0054559Y0011078D01*
X0054400Y0011144D01*
X0054400Y0011485D02*
X0060015Y0011485D01*
X0061000Y0011485D02*
X0062000Y0011485D01*
X0062000Y0011686D02*
X0062000Y0007000D01*
X0066686Y0007000D01*
X0066572Y0007718D01*
X0066319Y0008496D01*
X0065947Y0009225D01*
X0065466Y0009888D01*
X0064888Y0010466D01*
X0064225Y0010947D01*
X0063496Y0011319D01*
X0062718Y0011572D01*
X0062000Y0011686D01*
X0062000Y0010487D02*
X0061000Y0010487D01*
X0061000Y0009488D02*
X0062000Y0009488D01*
X0062000Y0008490D02*
X0061000Y0008490D01*
X0061000Y0007491D02*
X0062000Y0007491D01*
X0062000Y0006493D02*
X0075701Y0006493D01*
X0075701Y0007491D02*
X0066608Y0007491D01*
X0066321Y0008490D02*
X0075701Y0008490D01*
X0075701Y0009488D02*
X0065757Y0009488D01*
X0064860Y0010487D02*
X0075701Y0010487D01*
X0075701Y0011485D02*
X0062985Y0011485D01*
X0066686Y0006000D02*
X0066686Y0006000D01*
X0066886Y0026357D02*
X0066917Y0026357D01*
X0067741Y0026488D01*
X0068534Y0026746D01*
X0069278Y0027125D01*
X0069953Y0027615D01*
X0070543Y0028205D01*
X0071033Y0028880D01*
X0071412Y0029623D01*
X0071669Y0030416D01*
X0071800Y0031240D01*
X0071800Y0031272D01*
X0066886Y0031272D01*
X0066886Y0032043D01*
X0071800Y0032043D01*
X0071800Y0032075D01*
X0071669Y0032899D01*
X0071412Y0033692D01*
X0071033Y0034435D01*
X0070543Y0035110D01*
X0069953Y0035700D01*
X0069278Y0036190D01*
X0068534Y0036569D01*
X0067741Y0036827D01*
X0066917Y0036957D01*
X0066886Y0036957D01*
X0066886Y0032043D01*
X0066114Y0032043D01*
X0066114Y0031272D01*
X0061200Y0031272D01*
X0061200Y0031240D01*
X0061330Y0030416D01*
X0061588Y0029623D01*
X0061967Y0028880D01*
X0062457Y0028205D01*
X0063047Y0027615D01*
X0063722Y0027125D01*
X0064466Y0026746D01*
X0065259Y0026488D01*
X0066083Y0026357D01*
X0066114Y0026357D01*
X0066114Y0031272D01*
X0066886Y0031272D01*
X0066886Y0026357D01*
X0066886Y0026463D02*
X0066114Y0026463D01*
X0065418Y0026463D02*
X0054400Y0026463D01*
X0054400Y0027461D02*
X0063259Y0027461D01*
X0062272Y0028460D02*
X0054400Y0028460D01*
X0054400Y0029458D02*
X0061672Y0029458D01*
X0061324Y0030457D02*
X0054400Y0030457D01*
X0054400Y0031455D02*
X0066114Y0031455D01*
X0066114Y0032043D02*
X0061200Y0032043D01*
X0061200Y0032075D01*
X0061330Y0032899D01*
X0061588Y0033692D01*
X0061967Y0034435D01*
X0062457Y0035110D01*
X0063047Y0035700D01*
X0063722Y0036190D01*
X0064466Y0036569D01*
X0065259Y0036827D01*
X0066083Y0036957D01*
X0066114Y0036957D01*
X0066114Y0032043D01*
X0066114Y0032454D02*
X0066886Y0032454D01*
X0066886Y0033452D02*
X0066114Y0033452D01*
X0066114Y0034451D02*
X0066886Y0034451D01*
X0066886Y0035449D02*
X0066114Y0035449D01*
X0066114Y0036448D02*
X0066886Y0036448D01*
X0066886Y0031455D02*
X0075701Y0031455D01*
X0075701Y0030457D02*
X0071676Y0030457D01*
X0071328Y0029458D02*
X0075701Y0029458D01*
X0075701Y0028460D02*
X0070728Y0028460D01*
X0069741Y0027461D02*
X0075701Y0027461D01*
X0075701Y0026463D02*
X0067582Y0026463D01*
X0066886Y0027461D02*
X0066114Y0027461D01*
X0066114Y0028460D02*
X0066886Y0028460D01*
X0066886Y0029458D02*
X0066114Y0029458D01*
X0066114Y0030457D02*
X0066886Y0030457D01*
X0068773Y0036448D02*
X0075701Y0036448D01*
X0075701Y0037446D02*
X0054400Y0037446D01*
X0054400Y0036448D02*
X0064227Y0036448D01*
X0062797Y0035449D02*
X0054400Y0035449D01*
X0054400Y0034451D02*
X0061978Y0034451D01*
X0061510Y0033452D02*
X0054400Y0033452D01*
X0054400Y0032454D02*
X0061260Y0032454D01*
X0061405Y0046433D02*
X0055534Y0046433D01*
X0054536Y0045434D02*
X0075701Y0045434D01*
X0075701Y0044436D02*
X0054400Y0044436D01*
X0054400Y0043437D02*
X0075701Y0043437D01*
X0075701Y0042439D02*
X0054400Y0042439D01*
X0054400Y0041440D02*
X0075701Y0041440D01*
X0075701Y0040442D02*
X0054400Y0040442D01*
X0054400Y0039443D02*
X0075701Y0039443D01*
X0075701Y0038445D02*
X0054400Y0038445D01*
X0056533Y0047432D02*
X0061000Y0047432D01*
X0061000Y0048430D02*
X0057531Y0048430D01*
X0063946Y0057417D02*
X0045528Y0057417D01*
X0046526Y0058415D02*
X0063946Y0058415D01*
X0066646Y0051488D02*
X0066500Y0051343D01*
X0069346Y0057417D02*
X0075701Y0057417D01*
X0075701Y0058415D02*
X0069346Y0058415D01*
X0069346Y0059414D02*
X0075701Y0059414D01*
X0075701Y0060412D02*
X0069346Y0060412D01*
X0069346Y0061411D02*
X0075701Y0061411D01*
X0075701Y0062409D02*
X0069346Y0062409D01*
X0069346Y0063408D02*
X0075701Y0063408D01*
X0075701Y0064406D02*
X0069346Y0064406D01*
X0069346Y0065405D02*
X0075701Y0065405D01*
X0075701Y0066403D02*
X0069346Y0066403D01*
X0069346Y0067402D02*
X0075701Y0067402D01*
X0075701Y0068400D02*
X0069346Y0068400D01*
X0069346Y0069399D02*
X0075701Y0069399D01*
X0075701Y0070397D02*
X0069346Y0070397D01*
X0069346Y0071396D02*
X0075701Y0071396D01*
X0075701Y0072394D02*
X0069346Y0072394D01*
X0069346Y0073393D02*
X0075701Y0073393D01*
X0075701Y0074391D02*
X0069346Y0074391D01*
X0069346Y0075390D02*
X0075701Y0075390D01*
X0075701Y0076388D02*
X0069346Y0076388D01*
X0069346Y0077387D02*
X0075701Y0077387D01*
X0075701Y0078385D02*
X0069346Y0078385D01*
X0069346Y0079384D02*
X0075701Y0079384D01*
X0075701Y0080382D02*
X0069346Y0080382D01*
X0069346Y0081381D02*
X0075701Y0081381D01*
X0075701Y0082379D02*
X0075467Y0082379D01*
X0072100Y0088370D02*
X0071099Y0088370D01*
X0062193Y0088370D02*
X0050807Y0088370D01*
X0051304Y0087372D02*
X0061696Y0087372D01*
X0061696Y0086373D02*
X0051304Y0086373D01*
X0051304Y0085375D02*
X0061696Y0085375D01*
X0061696Y0084376D02*
X0051304Y0084376D01*
X0051304Y0083378D02*
X0061696Y0083378D01*
X0061844Y0082379D02*
X0051156Y0082379D01*
X0049917Y0094362D02*
X0062461Y0094362D01*
X0061696Y0095360D02*
X0051031Y0095360D01*
X0046839Y0095360D02*
X0045870Y0095360D01*
X0045870Y0094362D02*
X0046839Y0094362D01*
X0046839Y0096359D02*
X0045870Y0096359D01*
X0045870Y0098356D02*
X0046839Y0098356D01*
X0046839Y0099354D02*
X0045870Y0099354D01*
X0045870Y0100353D02*
X0046839Y0100353D01*
X0045549Y0109339D02*
X0039400Y0109339D01*
X0039400Y0110338D02*
X0044551Y0110338D01*
X0044154Y0111336D02*
X0039400Y0111336D01*
X0039400Y0112335D02*
X0044154Y0112335D01*
X0044154Y0113333D02*
X0039400Y0113333D01*
X0039400Y0114332D02*
X0044154Y0114332D01*
X0044154Y0115330D02*
X0039400Y0115330D01*
X0045870Y0130308D02*
X0046839Y0130308D01*
X0046839Y0131306D02*
X0045870Y0131306D01*
X0045870Y0132305D02*
X0046839Y0132305D01*
X0046839Y0133303D02*
X0045870Y0133303D01*
X0045870Y0134302D02*
X0046839Y0134302D01*
X0046839Y0135301D02*
X0045870Y0135301D01*
X0046354Y0146646D02*
X0046354Y0155201D01*
X0045870Y0165256D02*
X0046839Y0165256D01*
X0046839Y0166254D02*
X0045870Y0166254D01*
X0045870Y0167253D02*
X0046839Y0167253D01*
X0046839Y0169250D02*
X0045870Y0169250D01*
X0045870Y0170248D02*
X0046839Y0170248D01*
X0046839Y0171247D02*
X0045870Y0171247D01*
X0046354Y0181646D02*
X0046354Y0190201D01*
X0045870Y0200204D02*
X0046839Y0200204D01*
X0046839Y0201202D02*
X0045870Y0201202D01*
X0045870Y0202201D02*
X0046839Y0202201D01*
X0046839Y0204198D02*
X0045870Y0204198D01*
X0045870Y0205196D02*
X0046839Y0205196D01*
X0046839Y0206195D02*
X0045870Y0206195D01*
X0046354Y0216646D02*
X0046354Y0225201D01*
X0045870Y0234331D02*
X0042907Y0234331D01*
X0042525Y0234433D01*
X0042183Y0234630D01*
X0041904Y0234910D01*
X0041707Y0235252D01*
X0041604Y0235633D01*
X0041604Y0237315D01*
X0045870Y0237315D01*
X0045870Y0238283D01*
X0041604Y0238283D01*
X0041604Y0239965D01*
X0041707Y0240347D01*
X0041904Y0240689D01*
X0042183Y0240968D01*
X0042525Y0241165D01*
X0042907Y0241268D01*
X0045870Y0241268D01*
X0045870Y0238284D01*
X0046839Y0238284D01*
X0046839Y0241268D01*
X0049802Y0241268D01*
X0050183Y0241165D01*
X0050525Y0240968D01*
X0050805Y0240689D01*
X0051002Y0240347D01*
X0051104Y0239965D01*
X0051104Y0238283D01*
X0046839Y0238283D01*
X0046839Y0237315D01*
X0051104Y0237315D01*
X0051104Y0235633D01*
X0051002Y0235252D01*
X0050805Y0234910D01*
X0050525Y0234630D01*
X0050183Y0234433D01*
X0049802Y0234331D01*
X0046839Y0234331D01*
X0046839Y0237315D01*
X0045870Y0237315D01*
X0045870Y0234331D01*
X0045870Y0235152D02*
X0046839Y0235152D01*
X0046839Y0236150D02*
X0045870Y0236150D01*
X0045870Y0237149D02*
X0046839Y0237149D01*
X0046839Y0238147D02*
X0061696Y0238147D01*
X0061696Y0237149D02*
X0051104Y0237149D01*
X0051104Y0236150D02*
X0061696Y0236150D01*
X0061696Y0235152D02*
X0050944Y0235152D01*
X0051104Y0239146D02*
X0061696Y0239146D01*
X0061696Y0240144D02*
X0051056Y0240144D01*
X0050223Y0241143D02*
X0062367Y0241143D01*
X0064300Y0242141D02*
X0039400Y0242141D01*
X0039400Y0241143D02*
X0042486Y0241143D01*
X0041652Y0240144D02*
X0039400Y0240144D01*
X0039400Y0239146D02*
X0041604Y0239146D01*
X0041604Y0237149D02*
X0039400Y0237149D01*
X0039400Y0238147D02*
X0045870Y0238147D01*
X0045870Y0239146D02*
X0046839Y0239146D01*
X0046839Y0240144D02*
X0045870Y0240144D01*
X0045870Y0241143D02*
X0046839Y0241143D01*
X0044759Y0250129D02*
X0039400Y0250129D01*
X0039400Y0249131D02*
X0064300Y0249131D01*
X0064300Y0248132D02*
X0039400Y0248132D01*
X0039750Y0247134D02*
X0064300Y0247134D01*
X0064300Y0246135D02*
X0039750Y0246135D01*
X0039453Y0245137D02*
X0064300Y0245137D01*
X0064300Y0244138D02*
X0039400Y0244138D01*
X0039400Y0243140D02*
X0064300Y0243140D01*
X0066500Y0251500D02*
X0046500Y0251500D01*
X0046354Y0251646D01*
X0046354Y0260201D01*
X0044154Y0256120D02*
X0039400Y0256120D01*
X0039400Y0255122D02*
X0044154Y0255122D01*
X0044154Y0254123D02*
X0039400Y0254123D01*
X0039400Y0253125D02*
X0044154Y0253125D01*
X0044154Y0252126D02*
X0039400Y0252126D01*
X0039400Y0251128D02*
X0044154Y0251128D01*
X0041814Y0257119D02*
X0039400Y0257119D01*
X0039400Y0258117D02*
X0041404Y0258117D01*
X0041404Y0259116D02*
X0039400Y0259116D01*
X0039400Y0260114D02*
X0041404Y0260114D01*
X0041404Y0261113D02*
X0039400Y0261113D01*
X0039400Y0262111D02*
X0041404Y0262111D01*
X0041641Y0263110D02*
X0039400Y0263110D01*
X0039400Y0264108D02*
X0075701Y0264108D01*
X0075701Y0263110D02*
X0071359Y0263110D01*
X0071569Y0270100D02*
X0075701Y0270100D01*
X0075701Y0271098D02*
X0071596Y0271098D01*
X0071596Y0272097D02*
X0075701Y0272097D01*
X0075701Y0273095D02*
X0071596Y0273095D01*
X0071596Y0274094D02*
X0075701Y0274094D01*
X0075701Y0275092D02*
X0071596Y0275092D01*
X0070977Y0276091D02*
X0075701Y0276091D01*
X0075701Y0269101D02*
X0038976Y0269101D01*
X0039389Y0268103D02*
X0075701Y0268103D01*
X0075701Y0267104D02*
X0039400Y0267104D01*
X0039400Y0266105D02*
X0075701Y0266105D01*
X0075701Y0265107D02*
X0039400Y0265107D01*
X0045870Y0270100D02*
X0046839Y0270100D01*
X0046839Y0271098D02*
X0045870Y0271098D01*
X0045870Y0272097D02*
X0046839Y0272097D01*
X0046839Y0274094D02*
X0045870Y0274094D01*
X0045870Y0275092D02*
X0046839Y0275092D01*
X0046839Y0276091D02*
X0045870Y0276091D01*
X0041604Y0236150D02*
X0039400Y0236150D01*
X0039400Y0235152D02*
X0041764Y0235152D01*
X0033600Y0196946D02*
X0033600Y0172701D01*
X0033566Y0172668D01*
X0032058Y0172668D01*
X0032058Y0174803D01*
X0031062Y0175798D01*
X0025717Y0175798D01*
X0025043Y0175125D01*
X0024370Y0175798D01*
X0023700Y0175798D01*
X0023700Y0190276D01*
X0024650Y0190276D01*
X0025634Y0190276D01*
X0026016Y0190378D01*
X0026358Y0190575D01*
X0026637Y0190855D01*
X0026835Y0191197D01*
X0026937Y0191578D01*
X0026937Y0193153D01*
X0024650Y0193153D01*
X0024650Y0193154D01*
X0026937Y0193154D01*
X0026937Y0194021D01*
X0027924Y0195008D01*
X0027924Y0196946D01*
X0033600Y0196946D01*
X0033600Y0196210D02*
X0027924Y0196210D01*
X0027924Y0195211D02*
X0033600Y0195211D01*
X0033600Y0194213D02*
X0027129Y0194213D01*
X0026937Y0193214D02*
X0033600Y0193214D01*
X0033600Y0192216D02*
X0026937Y0192216D01*
X0026840Y0191217D02*
X0033600Y0191217D01*
X0033600Y0190219D02*
X0023700Y0190219D01*
X0023700Y0189220D02*
X0033600Y0189220D01*
X0033600Y0188222D02*
X0023700Y0188222D01*
X0023700Y0187223D02*
X0033600Y0187223D01*
X0033600Y0186225D02*
X0023700Y0186225D01*
X0023700Y0185226D02*
X0033600Y0185226D01*
X0033600Y0184228D02*
X0023700Y0184228D01*
X0023700Y0183229D02*
X0033600Y0183229D01*
X0033600Y0182231D02*
X0023700Y0182231D01*
X0023700Y0181232D02*
X0033600Y0181232D01*
X0033600Y0180234D02*
X0023700Y0180234D01*
X0023700Y0179235D02*
X0033600Y0179235D01*
X0033600Y0178237D02*
X0023700Y0178237D01*
X0023700Y0177238D02*
X0033600Y0177238D01*
X0033600Y0176239D02*
X0023700Y0176239D01*
X0024927Y0175241D02*
X0025160Y0175241D01*
X0025197Y0164257D02*
X0024890Y0164257D01*
X0027905Y0158266D02*
X0028874Y0158266D01*
X0028874Y0157268D02*
X0027905Y0157268D01*
X0027905Y0156269D02*
X0028874Y0156269D01*
X0028874Y0155271D02*
X0027905Y0155271D01*
X0027905Y0154272D02*
X0028874Y0154272D01*
X0028874Y0153274D02*
X0033600Y0153274D01*
X0033600Y0154272D02*
X0031858Y0154272D01*
X0031858Y0155271D02*
X0033600Y0155271D01*
X0033600Y0156269D02*
X0031858Y0156269D01*
X0031858Y0157268D02*
X0033600Y0157268D01*
X0033600Y0158266D02*
X0031684Y0158266D01*
X0033600Y0159265D02*
X0006000Y0159265D01*
X0006000Y0160263D02*
X0033600Y0160263D01*
X0033600Y0161262D02*
X0006000Y0161262D01*
X0006000Y0162260D02*
X0033600Y0162260D01*
X0033600Y0163259D02*
X0006000Y0163259D01*
X0017855Y0129309D02*
X0018058Y0129309D01*
X0021500Y0134768D02*
X0021500Y0153232D01*
X0024451Y0147283D02*
X0033600Y0147283D01*
X0033600Y0148281D02*
X0031732Y0148281D01*
X0031858Y0149280D02*
X0033600Y0149280D01*
X0033600Y0150278D02*
X0031858Y0150278D01*
X0031858Y0151277D02*
X0033600Y0151277D01*
X0033600Y0152275D02*
X0031858Y0152275D01*
X0033600Y0146284D02*
X0023700Y0146284D01*
X0023700Y0145286D02*
X0033600Y0145286D01*
X0033600Y0144287D02*
X0023700Y0144287D01*
X0023700Y0143289D02*
X0033600Y0143289D01*
X0033600Y0142290D02*
X0023700Y0142290D01*
X0023700Y0141292D02*
X0033600Y0141292D01*
X0033600Y0140293D02*
X0031568Y0140293D01*
X0032058Y0139295D02*
X0033600Y0139295D01*
X0033600Y0138296D02*
X0032058Y0138296D01*
X0028874Y0148281D02*
X0027905Y0148281D01*
X0027905Y0149280D02*
X0028874Y0149280D01*
X0028874Y0150278D02*
X0027905Y0150278D01*
X0027905Y0151277D02*
X0028874Y0151277D01*
X0028874Y0152275D02*
X0027905Y0152275D01*
X0025212Y0140293D02*
X0024875Y0140293D01*
X0024942Y0129309D02*
X0025145Y0129309D01*
X0027905Y0123318D02*
X0028874Y0123318D01*
X0028874Y0122320D02*
X0027905Y0122320D01*
X0027905Y0121321D02*
X0028874Y0121321D01*
X0028874Y0120323D02*
X0027905Y0120323D01*
X0027905Y0119324D02*
X0028874Y0119324D01*
X0021500Y0118232D02*
X0021500Y0099768D01*
X0018006Y0094362D02*
X0017907Y0094362D01*
X0014610Y0099768D02*
X0014610Y0118232D01*
X0024994Y0094362D02*
X0025093Y0094362D01*
X0027905Y0088370D02*
X0028874Y0088370D01*
X0028874Y0089063D02*
X0028874Y0083717D01*
X0031858Y0083717D01*
X0031858Y0087760D01*
X0031756Y0088142D01*
X0031559Y0088484D01*
X0031279Y0088763D01*
X0030937Y0088961D01*
X0030556Y0089063D01*
X0028874Y0089063D01*
X0028874Y0087372D02*
X0027905Y0087372D01*
X0027905Y0086373D02*
X0028874Y0086373D01*
X0028874Y0085375D02*
X0027905Y0085375D01*
X0027905Y0084376D02*
X0028874Y0084376D01*
X0028874Y0083378D02*
X0041404Y0083378D01*
X0041404Y0084376D02*
X0031858Y0084376D01*
X0031858Y0085375D02*
X0041404Y0085375D01*
X0041404Y0086373D02*
X0031858Y0086373D01*
X0031858Y0087372D02*
X0041404Y0087372D01*
X0041901Y0088370D02*
X0031624Y0088370D01*
X0031858Y0082379D02*
X0041553Y0082379D01*
X0044154Y0076388D02*
X0023700Y0076388D01*
X0023700Y0075390D02*
X0044154Y0075390D01*
X0044154Y0074391D02*
X0023700Y0074391D01*
X0023700Y0073393D02*
X0044154Y0073393D01*
X0044154Y0072394D02*
X0023700Y0072394D01*
X0023700Y0071396D02*
X0044154Y0071396D01*
X0044491Y0070397D02*
X0023700Y0070397D01*
X0023700Y0069399D02*
X0045490Y0069399D01*
X0054400Y0025464D02*
X0075701Y0025464D01*
X0075701Y0024466D02*
X0054400Y0024466D01*
X0054400Y0023467D02*
X0075701Y0023467D01*
X0075701Y0022469D02*
X0054400Y0022469D01*
X0054400Y0021470D02*
X0075701Y0021470D01*
X0075701Y0020472D02*
X0054400Y0020472D01*
X0054400Y0019473D02*
X0075701Y0019473D01*
X0075701Y0018475D02*
X0054400Y0018475D01*
X0054400Y0017476D02*
X0075701Y0017476D01*
X0075701Y0016478D02*
X0054400Y0016478D01*
X0054400Y0015479D02*
X0075701Y0015479D01*
X0075701Y0014481D02*
X0054400Y0014481D01*
X0054400Y0013482D02*
X0075701Y0013482D01*
X0075701Y0012484D02*
X0054400Y0012484D01*
X0055150Y0010487D02*
X0058140Y0010487D01*
X0057243Y0009488D02*
X0056107Y0009488D01*
X0056521Y0008490D02*
X0056679Y0008490D01*
X0070203Y0035449D02*
X0075701Y0035449D01*
X0075701Y0034451D02*
X0071022Y0034451D01*
X0071490Y0033452D02*
X0075701Y0033452D01*
X0075701Y0032454D02*
X0071740Y0032454D01*
X0071595Y0046433D02*
X0075701Y0046433D01*
X0075701Y0047432D02*
X0072000Y0047432D01*
X0072000Y0048430D02*
X0075701Y0048430D01*
X0075701Y0049429D02*
X0072000Y0049429D01*
X0072000Y0050427D02*
X0075701Y0050427D01*
X0075701Y0051426D02*
X0072000Y0051426D01*
X0072000Y0052424D02*
X0075701Y0052424D01*
X0075701Y0053423D02*
X0072000Y0053423D01*
X0072000Y0054421D02*
X0075701Y0054421D01*
X0075701Y0055420D02*
X0072000Y0055420D01*
X0071429Y0056418D02*
X0075701Y0056418D01*
X0072100Y0152275D02*
X0071343Y0152275D01*
X0071203Y0158266D02*
X0072100Y0158266D01*
X0072100Y0187223D02*
X0071291Y0187223D01*
X0071255Y0193214D02*
X0072100Y0193214D01*
X0072100Y0222171D02*
X0071239Y0222171D01*
X0071307Y0228162D02*
X0072100Y0228162D01*
X0033600Y0175241D02*
X0031620Y0175241D01*
X0032058Y0174242D02*
X0033600Y0174242D01*
X0033600Y0173244D02*
X0032058Y0173244D01*
X0032058Y0166254D02*
X0033600Y0166254D01*
X0033600Y0165256D02*
X0032058Y0165256D01*
X0031583Y0164257D02*
X0033600Y0164257D01*
X0024650Y0190276D02*
X0024650Y0193153D01*
X0024650Y0193153D01*
X0024650Y0190276D01*
X0024650Y0191217D02*
X0024650Y0191217D01*
X0024650Y0192216D02*
X0024650Y0192216D01*
X0021500Y0193154D02*
X0021500Y0169768D01*
X0024650Y0225276D02*
X0024650Y0228153D01*
X0024650Y0225276D01*
X0024650Y0226165D02*
X0024650Y0226165D01*
X0024650Y0227164D02*
X0024650Y0227164D01*
X0024650Y0228153D02*
X0024650Y0228153D01*
X0024650Y0260276D02*
X0024650Y0263153D01*
X0024650Y0260276D01*
X0024650Y0261113D02*
X0024650Y0261113D01*
X0024650Y0262111D02*
X0024650Y0262111D01*
X0024650Y0263110D02*
X0024650Y0263110D01*
X0024650Y0263153D02*
X0024650Y0263153D01*
X0027905Y0082379D02*
X0028874Y0082379D01*
X0028874Y0081381D02*
X0027905Y0081381D01*
X0027905Y0080382D02*
X0028874Y0080382D01*
X0028874Y0079384D02*
X0027905Y0079384D01*
X0027905Y0078385D02*
X0028874Y0078385D01*
D20*
X0066646Y0085201D02*
X0066646Y0051488D01*
D21*
X0066500Y0051343D02*
X0056343Y0051343D01*
X0051500Y0046500D01*
X0051500Y0006500D01*
X0066646Y0085201D02*
X0074701Y0085201D01*
X0075000Y0085500D01*
X0075000Y0121500D01*
X0073701Y0120201D01*
X0066646Y0120201D01*
X0075000Y0121500D02*
X0075000Y0156500D01*
X0073701Y0155201D01*
X0066646Y0155201D01*
X0075000Y0156500D02*
X0075000Y0191500D01*
X0073701Y0190201D01*
X0066646Y0190201D01*
X0075000Y0191500D02*
X0075000Y0226500D01*
X0073701Y0225201D01*
X0066646Y0225201D01*
X0075000Y0226500D02*
X0075000Y0246500D01*
X0075000Y0259500D01*
X0074500Y0260000D01*
X0066846Y0260000D01*
X0066646Y0260201D01*
X0036500Y0267500D02*
X0036500Y0246500D01*
X0036500Y0236500D01*
X0034846Y0234846D01*
X0024650Y0234846D01*
X0024846Y0234650D01*
X0024846Y0231500D01*
X0024650Y0199846D02*
X0024846Y0199650D01*
X0024846Y0196500D01*
X0024650Y0199846D02*
X0034846Y0199846D01*
X0036500Y0201500D01*
X0036500Y0236500D01*
X0036500Y0267500D02*
X0034000Y0270000D01*
X0024803Y0270000D01*
X0024650Y0269846D01*
X0024650Y0266697D01*
X0024846Y0266500D01*
X0036500Y0201500D02*
X0036500Y0171500D01*
X0034768Y0169768D01*
X0028390Y0169768D01*
X0036500Y0171500D02*
X0036500Y0136500D01*
X0034768Y0134768D01*
X0028390Y0134768D01*
X0036500Y0136500D02*
X0036500Y0101500D01*
X0034768Y0099768D01*
X0028390Y0099768D01*
D22*
X0036500Y0076500D03*
X0036500Y0071500D03*
X0031500Y0071500D03*
X0026500Y0071500D03*
X0026500Y0181500D03*
X0026500Y0186500D03*
X0026500Y0211500D03*
X0026500Y0216500D03*
X0026500Y0246500D03*
X0026500Y0251500D03*
X0036500Y0246500D03*
X0011500Y0221500D03*
X0011500Y0216500D03*
X0011500Y0211500D03*
X0011500Y0206500D03*
X0011500Y0201500D03*
X0075000Y0246500D03*
M02*
