G75*
%MOIN*%
%OFA0B0*%
%FSLAX25Y25*%
%IPPOS*%
%LPD*%
%AMOC8*
5,1,8,0,0,1.08239X$1,22.5*
%
%ADD10R,0.06500X0.03937*%
%ADD11R,0.02953X0.08169*%
%ADD12R,0.01575X0.02756*%
%ADD13R,0.02756X0.01575*%
%ADD14R,0.04331X0.03937*%
D10*
X0046354Y0085201D03*
X0046354Y0097799D03*
X0046354Y0120201D03*
X0046354Y0132799D03*
X0046354Y0155201D03*
X0046354Y0167799D03*
X0046354Y0190201D03*
X0046354Y0202799D03*
X0046354Y0225201D03*
X0046354Y0237799D03*
X0046354Y0260201D03*
X0046354Y0272799D03*
X0066646Y0272799D03*
X0066646Y0260201D03*
X0066646Y0237799D03*
X0066646Y0225201D03*
X0066646Y0202799D03*
X0066646Y0190201D03*
X0066646Y0167799D03*
X0066646Y0155201D03*
X0066646Y0132799D03*
X0066646Y0120201D03*
X0066646Y0097799D03*
X0066646Y0085201D03*
D11*
X0014118Y0082986D03*
X0014118Y0100014D03*
X0014118Y0117986D03*
X0014118Y0135014D03*
X0014118Y0152986D03*
X0014118Y0170014D03*
X0021500Y0170014D03*
X0021500Y0152986D03*
X0021500Y0135014D03*
X0021500Y0117986D03*
X0021500Y0100014D03*
X0021500Y0082986D03*
X0028882Y0082986D03*
X0028882Y0100014D03*
X0028882Y0117986D03*
X0028882Y0135014D03*
X0028882Y0152986D03*
X0028882Y0170014D03*
D12*
X0024650Y0193154D03*
X0024650Y0199846D03*
X0021500Y0199846D03*
X0021500Y0193154D03*
X0018350Y0193154D03*
X0018350Y0199846D03*
X0018350Y0228154D03*
X0018350Y0234846D03*
X0021500Y0234846D03*
X0021500Y0228154D03*
X0024650Y0228154D03*
X0024650Y0234846D03*
X0024650Y0263154D03*
X0024650Y0269846D03*
X0021500Y0269846D03*
X0018350Y0269846D03*
X0018350Y0263154D03*
X0021500Y0263154D03*
D13*
X0018154Y0266500D03*
X0024846Y0266500D03*
X0024846Y0231500D03*
X0018154Y0231500D03*
X0018154Y0196500D03*
X0024846Y0196500D03*
D14*
X0053154Y0071500D03*
X0059846Y0071500D03*
M02*
