G75*
%MOIN*%
%OFA0B0*%
%FSLAX25Y25*%
%IPPOS*%
%LPD*%
%AMOC8*
5,1,8,0,0,1.08239X$1,22.5*
%
%ADD10C,0.08400*%
%ADD11R,0.08400X0.08400*%
%ADD12R,0.07300X0.04737*%
%ADD13R,0.04737X0.09461*%
%ADD14R,0.05131X0.09461*%
%ADD15R,0.02375X0.03556*%
%ADD16R,0.03556X0.02375*%
%ADD17R,0.03000X0.03000*%
%ADD18C,0.08200*%
%ADD19R,0.05131X0.04737*%
%ADD20C,0.03900*%
D10*
X0066500Y0031657D03*
D11*
X0066500Y0051343D03*
D12*
X0066646Y0085201D03*
X0066646Y0097799D03*
X0066646Y0120201D03*
X0066646Y0132799D03*
X0066646Y0155201D03*
X0066646Y0167799D03*
X0066646Y0190201D03*
X0066646Y0202799D03*
X0066646Y0225201D03*
X0066646Y0237799D03*
X0066646Y0260201D03*
X0066646Y0272799D03*
X0046354Y0272799D03*
X0046354Y0260201D03*
X0046354Y0237799D03*
X0046354Y0225201D03*
X0046354Y0202799D03*
X0046354Y0190201D03*
X0046354Y0167799D03*
X0046354Y0155201D03*
X0046354Y0132799D03*
X0046354Y0120201D03*
X0046354Y0097799D03*
X0046354Y0085201D03*
D13*
X0028390Y0083232D03*
X0028390Y0099768D03*
X0028390Y0118232D03*
X0028390Y0134768D03*
X0028390Y0153232D03*
X0028390Y0169768D03*
X0014610Y0169768D03*
X0014610Y0153232D03*
X0014610Y0134768D03*
X0014610Y0118232D03*
X0014610Y0099768D03*
X0014610Y0083232D03*
D14*
X0021500Y0083232D03*
X0021500Y0099768D03*
X0021500Y0118232D03*
X0021500Y0134768D03*
X0021500Y0153232D03*
X0021500Y0169768D03*
D15*
X0021500Y0193154D03*
X0021500Y0199846D03*
X0018350Y0199846D03*
X0018350Y0193154D03*
X0024650Y0193154D03*
X0024650Y0199846D03*
X0024650Y0228154D03*
X0024650Y0234846D03*
X0021500Y0234846D03*
X0021500Y0228154D03*
X0018350Y0228154D03*
X0018350Y0234846D03*
X0018350Y0263154D03*
X0021500Y0263154D03*
X0021500Y0269846D03*
X0018350Y0269846D03*
X0024650Y0269846D03*
X0024650Y0263154D03*
D16*
X0024846Y0266500D03*
X0018154Y0266500D03*
X0018154Y0231500D03*
X0024846Y0231500D03*
X0024846Y0196500D03*
X0018154Y0196500D03*
D17*
X0021500Y0196500D03*
X0021500Y0231500D03*
X0021500Y0266500D03*
D18*
X0021500Y0006500D03*
X0031500Y0006500D03*
X0041500Y0006500D03*
X0051500Y0006500D03*
X0061500Y0006500D03*
D19*
X0059846Y0071500D03*
X0053154Y0071500D03*
D20*
X0036500Y0071500D03*
X0036500Y0076500D03*
X0031500Y0071500D03*
X0026500Y0071500D03*
X0026500Y0181500D03*
X0026500Y0186500D03*
X0026500Y0211500D03*
X0026500Y0216500D03*
X0026500Y0246500D03*
X0026500Y0251500D03*
X0036500Y0246500D03*
X0011500Y0221500D03*
X0011500Y0216500D03*
X0011500Y0211500D03*
X0011500Y0206500D03*
X0011500Y0201500D03*
X0075000Y0246500D03*
M02*
