%
M48
M72
T01C0.0150
T02C0.0354
T03C0.0400
%
T01
X2650Y7150
X3150Y7150
X3650Y7150
X3650Y7650
X2650Y18150
X2650Y18650
X2650Y21150
X2650Y21650
X2650Y24650
X2650Y25150
X3650Y24650
X1150Y22150
X1150Y21650
X1150Y21150
X1150Y20650
X1150Y20150
X7500Y24650
T02
X6650Y5134
X6650Y3166
T03
X2150Y650
X3150Y650
X4150Y650
X5150Y650
X6150Y650
M30
