G75*
%MOIN*%
%OFA0B0*%
%FSLAX25Y25*%
%IPPOS*%
%LPD*%
%AMOC8*
5,1,8,0,0,1.08239X$1,22.5*
%
%ADD10C,0.00800*%
%ADD11C,0.01600*%
%ADD12C,0.00500*%
%ADD13R,0.06102X0.03504*%
%ADD14C,0.00787*%
D10*
X0016500Y0004000D02*
X0019000Y0001500D01*
X0024000Y0001500D01*
X0026500Y0004000D01*
X0029000Y0001500D01*
X0034000Y0001500D01*
X0036500Y0004000D01*
X0039000Y0001500D01*
X0044000Y0001500D01*
X0046500Y0004000D01*
X0049000Y0001500D01*
X0054000Y0001500D01*
X0056500Y0004000D01*
X0059000Y0001500D01*
X0064000Y0001500D01*
X0066500Y0004000D01*
X0066500Y0009000D01*
X0064000Y0011500D01*
X0059000Y0011500D01*
X0056500Y0009000D01*
X0054000Y0011500D01*
X0049000Y0011500D01*
X0046500Y0009000D01*
X0044000Y0011500D01*
X0039000Y0011500D01*
X0036500Y0009000D01*
X0034000Y0011500D01*
X0029000Y0011500D01*
X0026500Y0009000D01*
X0024000Y0011500D01*
X0019000Y0011500D01*
X0016500Y0009000D01*
X0016500Y0004000D01*
X0046500Y0088100D02*
X0046500Y0091500D01*
X0056500Y0101500D01*
X0066180Y0101710D02*
X0046620Y0101710D01*
X0046620Y0100820D01*
X0046500Y0094900D02*
X0046500Y0091500D01*
X0046610Y0082130D02*
X0046610Y0081220D01*
X0066100Y0081220D01*
X0066100Y0081200D01*
X0066300Y0081200D01*
X0066300Y0082200D01*
X0066500Y0088300D02*
X0066500Y0095000D01*
X0066380Y0100630D02*
X0066380Y0101700D01*
X0066180Y0101700D01*
X0066180Y0101710D01*
X0066100Y0116200D02*
X0066100Y0116220D01*
X0046610Y0116220D01*
X0046610Y0117130D01*
X0046500Y0123100D02*
X0046500Y0126500D01*
X0056500Y0136500D01*
X0066180Y0136710D02*
X0046620Y0136710D01*
X0046620Y0135820D01*
X0046500Y0129900D02*
X0046500Y0126500D01*
X0046610Y0151220D02*
X0046610Y0152130D01*
X0046610Y0151220D02*
X0066100Y0151220D01*
X0066100Y0151200D01*
X0066300Y0151200D01*
X0066300Y0152200D01*
X0066500Y0158300D02*
X0066500Y0165000D01*
X0066380Y0170630D02*
X0066380Y0171700D01*
X0066180Y0171700D01*
X0066180Y0171710D01*
X0046620Y0171710D01*
X0046620Y0170820D01*
X0046500Y0164900D02*
X0046500Y0161500D01*
X0056500Y0171500D01*
X0066100Y0186220D02*
X0046610Y0186220D01*
X0046610Y0187130D01*
X0046500Y0193100D02*
X0046500Y0196500D01*
X0056500Y0206500D01*
X0066180Y0206710D02*
X0046620Y0206710D01*
X0046620Y0205820D01*
X0046500Y0199900D02*
X0046500Y0196500D01*
X0046610Y0221220D02*
X0046610Y0222130D01*
X0046610Y0221220D02*
X0066100Y0221220D01*
X0066100Y0221200D01*
X0066300Y0221200D01*
X0066300Y0222200D01*
X0066500Y0228300D02*
X0066500Y0235000D01*
X0066380Y0240630D02*
X0066380Y0241700D01*
X0066180Y0241700D01*
X0066180Y0241710D01*
X0046620Y0241710D01*
X0046620Y0240820D01*
X0046500Y0234900D02*
X0046500Y0231500D01*
X0056500Y0241500D01*
X0066100Y0256220D02*
X0046610Y0256220D01*
X0046610Y0257130D01*
X0046500Y0263100D02*
X0046500Y0266500D01*
X0056500Y0276500D01*
X0066180Y0276710D02*
X0046620Y0276710D01*
X0046620Y0275820D01*
X0046500Y0269900D02*
X0046500Y0266500D01*
X0046500Y0231500D02*
X0046500Y0228100D01*
X0066180Y0206710D02*
X0066180Y0206700D01*
X0066380Y0206700D01*
X0066380Y0205630D01*
X0066500Y0200000D02*
X0066500Y0193300D01*
X0066300Y0187200D02*
X0066300Y0186200D01*
X0066100Y0186200D01*
X0066100Y0186220D01*
X0066180Y0136710D02*
X0066180Y0136700D01*
X0066380Y0136700D01*
X0066380Y0135630D01*
X0066500Y0130000D02*
X0066500Y0123300D01*
X0066300Y0117200D02*
X0066300Y0116200D01*
X0066100Y0116200D01*
X0046500Y0158100D02*
X0046500Y0161500D01*
X0066100Y0256200D02*
X0066100Y0256220D01*
X0066100Y0256200D02*
X0066300Y0256200D01*
X0066300Y0257200D01*
X0066500Y0263300D02*
X0066500Y0270000D01*
X0066380Y0275630D02*
X0066380Y0276700D01*
X0066180Y0276700D01*
X0066180Y0276710D01*
X0056500Y0054000D02*
X0056500Y0049000D01*
X0054000Y0051500D02*
X0059000Y0051500D01*
X0056500Y0034000D02*
X0056500Y0029000D01*
X0046815Y0041500D02*
X0046821Y0041983D01*
X0046839Y0042466D01*
X0046868Y0042948D01*
X0046910Y0043429D01*
X0046963Y0043910D01*
X0047028Y0044388D01*
X0047105Y0044865D01*
X0047193Y0045340D01*
X0047293Y0045813D01*
X0047405Y0046283D01*
X0047528Y0046750D01*
X0047663Y0047214D01*
X0047809Y0047675D01*
X0047966Y0048132D01*
X0048134Y0048585D01*
X0048313Y0049033D01*
X0048504Y0049477D01*
X0048705Y0049916D01*
X0048917Y0050351D01*
X0049139Y0050779D01*
X0049372Y0051203D01*
X0049616Y0051620D01*
X0049869Y0052031D01*
X0050133Y0052436D01*
X0050406Y0052835D01*
X0050689Y0053226D01*
X0050981Y0053611D01*
X0051283Y0053988D01*
X0051594Y0054358D01*
X0051914Y0054720D01*
X0052243Y0055074D01*
X0052581Y0055419D01*
X0052926Y0055757D01*
X0053280Y0056086D01*
X0053642Y0056406D01*
X0054012Y0056717D01*
X0054389Y0057019D01*
X0054774Y0057311D01*
X0055165Y0057594D01*
X0055564Y0057867D01*
X0055969Y0058131D01*
X0056380Y0058384D01*
X0056797Y0058628D01*
X0057221Y0058861D01*
X0057649Y0059083D01*
X0058084Y0059295D01*
X0058523Y0059496D01*
X0058967Y0059687D01*
X0059415Y0059866D01*
X0059868Y0060034D01*
X0060325Y0060191D01*
X0060786Y0060337D01*
X0061250Y0060472D01*
X0061717Y0060595D01*
X0062187Y0060707D01*
X0062660Y0060807D01*
X0063135Y0060895D01*
X0063612Y0060972D01*
X0064090Y0061037D01*
X0064571Y0061090D01*
X0065052Y0061132D01*
X0065534Y0061161D01*
X0066017Y0061179D01*
X0066500Y0061185D01*
X0066983Y0061179D01*
X0067466Y0061161D01*
X0067948Y0061132D01*
X0068429Y0061090D01*
X0068910Y0061037D01*
X0069388Y0060972D01*
X0069865Y0060895D01*
X0070340Y0060807D01*
X0070813Y0060707D01*
X0071283Y0060595D01*
X0071750Y0060472D01*
X0072214Y0060337D01*
X0072675Y0060191D01*
X0073132Y0060034D01*
X0073585Y0059866D01*
X0074033Y0059687D01*
X0074477Y0059496D01*
X0074916Y0059295D01*
X0075351Y0059083D01*
X0075779Y0058861D01*
X0076203Y0058628D01*
X0076620Y0058384D01*
X0077031Y0058131D01*
X0077436Y0057867D01*
X0077835Y0057594D01*
X0078226Y0057311D01*
X0078611Y0057019D01*
X0078988Y0056717D01*
X0079358Y0056406D01*
X0079720Y0056086D01*
X0080074Y0055757D01*
X0080419Y0055419D01*
X0080757Y0055074D01*
X0081086Y0054720D01*
X0081406Y0054358D01*
X0081717Y0053988D01*
X0082019Y0053611D01*
X0082311Y0053226D01*
X0082594Y0052835D01*
X0082867Y0052436D01*
X0083131Y0052031D01*
X0083384Y0051620D01*
X0083628Y0051203D01*
X0083861Y0050779D01*
X0084083Y0050351D01*
X0084295Y0049916D01*
X0084496Y0049477D01*
X0084687Y0049033D01*
X0084866Y0048585D01*
X0085034Y0048132D01*
X0085191Y0047675D01*
X0085337Y0047214D01*
X0085472Y0046750D01*
X0085595Y0046283D01*
X0085707Y0045813D01*
X0085807Y0045340D01*
X0085895Y0044865D01*
X0085972Y0044388D01*
X0086037Y0043910D01*
X0086090Y0043429D01*
X0086132Y0042948D01*
X0086161Y0042466D01*
X0086179Y0041983D01*
X0086185Y0041500D01*
X0086179Y0041017D01*
X0086161Y0040534D01*
X0086132Y0040052D01*
X0086090Y0039571D01*
X0086037Y0039090D01*
X0085972Y0038612D01*
X0085895Y0038135D01*
X0085807Y0037660D01*
X0085707Y0037187D01*
X0085595Y0036717D01*
X0085472Y0036250D01*
X0085337Y0035786D01*
X0085191Y0035325D01*
X0085034Y0034868D01*
X0084866Y0034415D01*
X0084687Y0033967D01*
X0084496Y0033523D01*
X0084295Y0033084D01*
X0084083Y0032649D01*
X0083861Y0032221D01*
X0083628Y0031797D01*
X0083384Y0031380D01*
X0083131Y0030969D01*
X0082867Y0030564D01*
X0082594Y0030165D01*
X0082311Y0029774D01*
X0082019Y0029389D01*
X0081717Y0029012D01*
X0081406Y0028642D01*
X0081086Y0028280D01*
X0080757Y0027926D01*
X0080419Y0027581D01*
X0080074Y0027243D01*
X0079720Y0026914D01*
X0079358Y0026594D01*
X0078988Y0026283D01*
X0078611Y0025981D01*
X0078226Y0025689D01*
X0077835Y0025406D01*
X0077436Y0025133D01*
X0077031Y0024869D01*
X0076620Y0024616D01*
X0076203Y0024372D01*
X0075779Y0024139D01*
X0075351Y0023917D01*
X0074916Y0023705D01*
X0074477Y0023504D01*
X0074033Y0023313D01*
X0073585Y0023134D01*
X0073132Y0022966D01*
X0072675Y0022809D01*
X0072214Y0022663D01*
X0071750Y0022528D01*
X0071283Y0022405D01*
X0070813Y0022293D01*
X0070340Y0022193D01*
X0069865Y0022105D01*
X0069388Y0022028D01*
X0068910Y0021963D01*
X0068429Y0021910D01*
X0067948Y0021868D01*
X0067466Y0021839D01*
X0066983Y0021821D01*
X0066500Y0021815D01*
X0066017Y0021821D01*
X0065534Y0021839D01*
X0065052Y0021868D01*
X0064571Y0021910D01*
X0064090Y0021963D01*
X0063612Y0022028D01*
X0063135Y0022105D01*
X0062660Y0022193D01*
X0062187Y0022293D01*
X0061717Y0022405D01*
X0061250Y0022528D01*
X0060786Y0022663D01*
X0060325Y0022809D01*
X0059868Y0022966D01*
X0059415Y0023134D01*
X0058967Y0023313D01*
X0058523Y0023504D01*
X0058084Y0023705D01*
X0057649Y0023917D01*
X0057221Y0024139D01*
X0056797Y0024372D01*
X0056380Y0024616D01*
X0055969Y0024869D01*
X0055564Y0025133D01*
X0055165Y0025406D01*
X0054774Y0025689D01*
X0054389Y0025981D01*
X0054012Y0026283D01*
X0053642Y0026594D01*
X0053280Y0026914D01*
X0052926Y0027243D01*
X0052581Y0027581D01*
X0052243Y0027926D01*
X0051914Y0028280D01*
X0051594Y0028642D01*
X0051283Y0029012D01*
X0050981Y0029389D01*
X0050689Y0029774D01*
X0050406Y0030165D01*
X0050133Y0030564D01*
X0049869Y0030969D01*
X0049616Y0031380D01*
X0049372Y0031797D01*
X0049139Y0032221D01*
X0048917Y0032649D01*
X0048705Y0033084D01*
X0048504Y0033523D01*
X0048313Y0033967D01*
X0048134Y0034415D01*
X0047966Y0034868D01*
X0047809Y0035325D01*
X0047663Y0035786D01*
X0047528Y0036250D01*
X0047405Y0036717D01*
X0047293Y0037187D01*
X0047193Y0037660D01*
X0047105Y0038135D01*
X0047028Y0038612D01*
X0046963Y0039090D01*
X0046910Y0039571D01*
X0046868Y0040052D01*
X0046839Y0040534D01*
X0046821Y0041017D01*
X0046815Y0041500D01*
D11*
X0045250Y0102750D03*
X0045250Y0137750D03*
X0045250Y0172750D03*
X0045250Y0207750D03*
X0045250Y0242750D03*
X0045250Y0277750D03*
X0015719Y0273963D03*
X0015719Y0238963D03*
X0015719Y0203963D03*
X0010000Y0150500D03*
X0010000Y0115500D03*
X0010000Y0080500D03*
D12*
X0011657Y0081657D02*
X0011657Y0101343D01*
X0011657Y0116657D02*
X0011657Y0136343D01*
X0011657Y0151657D02*
X0011657Y0171343D01*
X0017642Y0171343D02*
X0018665Y0171343D01*
X0024335Y0171343D02*
X0025358Y0171343D01*
X0031343Y0171343D02*
X0031343Y0151657D01*
X0031343Y0136343D02*
X0031343Y0116657D01*
X0031343Y0101343D02*
X0031343Y0081657D01*
X0025358Y0081657D02*
X0024335Y0081657D01*
X0018665Y0081657D02*
X0017642Y0081657D01*
X0017642Y0101343D02*
X0018665Y0101343D01*
X0024335Y0101343D02*
X0025358Y0101343D01*
X0025358Y0116657D02*
X0024335Y0116657D01*
X0018665Y0116657D02*
X0017642Y0116657D01*
X0017642Y0136343D02*
X0018665Y0136343D01*
X0018665Y0151657D02*
X0017642Y0151657D01*
X0024335Y0151657D02*
X0025358Y0151657D01*
X0025358Y0136343D02*
X0024335Y0136343D01*
X0016776Y0198469D02*
X0016382Y0198469D01*
X0015988Y0198469D01*
X0015988Y0202406D01*
X0016776Y0202406D01*
X0016776Y0198469D01*
X0016382Y0198469D02*
X0016382Y0202012D01*
X0016382Y0233469D02*
X0016776Y0233469D01*
X0016776Y0237406D01*
X0015988Y0237406D01*
X0015988Y0233469D01*
X0016382Y0233469D01*
X0016382Y0237012D01*
X0016382Y0268469D02*
X0016776Y0268469D01*
X0016776Y0272406D01*
X0015988Y0272406D01*
X0015988Y0268469D01*
X0016382Y0268469D01*
X0016382Y0272012D01*
D13*
X0014512Y0159748D03*
X0014512Y0124748D03*
X0014512Y0089748D03*
D14*
X0015791Y0190594D02*
X0027209Y0190594D01*
X0027209Y0202406D01*
X0016776Y0202406D01*
X0015791Y0202406D01*
X0015791Y0190594D01*
X0015791Y0225594D02*
X0027209Y0225594D01*
X0027209Y0237406D01*
X0016776Y0237406D01*
X0015791Y0237406D01*
X0015791Y0225594D01*
X0015791Y0260594D02*
X0027209Y0260594D01*
X0027209Y0272406D01*
X0016776Y0272406D01*
X0015791Y0272406D01*
X0015791Y0260594D01*
M02*
